<svg width="50" height="50" viewBox="0 0 50 50" fill="none" xmlns="http://www.w3.org/2000/svg">
<mask id="path-1-outside-1_3086_4063" maskUnits="userSpaceOnUse" x="0" y="0.0744629" width="50" height="50" fill="black">
<rect fill="white" y="0.0744629" width="50" height="50"/>
<path d="M27.3567 49.0745C24.824 49.0745 22.3507 48.2247 20.3381 46.6224C17.8289 44.6247 16.3251 41.6505 16.2122 38.4627C16.2089 38.3598 16.2066 38.2583 16.2053 38.1554C16.1998 37.4946 16.2513 36.8345 16.3593 36.1911C16.3629 36.1705 16.3675 36.1499 16.3737 36.1299C16.4882 35.7505 16.576 35.3626 16.6351 34.9767C17.229 31.154 15.1754 27.3114 11.6408 25.6305C9.94933 24.8262 8.09015 24.5704 6.26394 24.8911C6.24502 24.8944 6.23196 24.897 6.21923 24.8999C6.21434 24.9009 6.20944 24.9019 6.20422 24.9029C5.89224 24.9595 5.59004 25.031 5.30613 25.1155C5.13969 25.1636 4.97587 25.1876 4.81563 25.1876C3.33437 25.1876 2.00746 24.3581 1.35282 23.0228C1.14298 22.5763 1.0255 22.1046 1.0007 21.6138C0.999719 21.5948 0.999719 21.5755 1.00102 21.5565C1.00461 21.5008 1.01016 21.4517 1.01767 21.4058C1.09273 20.9285 1.18639 20.4371 1.29539 19.9503C1.32215 19.8291 1.35021 19.7059 1.37958 19.5837C2.62392 14.3632 5.63965 9.64057 9.87166 6.28665C14.1709 2.87934 19.5718 1.03006 25.0714 1.07527C31.4102 1.12965 37.3895 3.64591 41.9077 8.15984C46.4265 12.6744 48.9449 18.6497 48.9991 24.9844C49.0435 30.1847 47.4574 35.1507 44.4117 39.3449C41.4302 43.451 37.3222 46.4688 32.5322 48.0717C31.5656 48.3957 30.5657 48.6604 29.5612 48.8586C28.8282 49.0034 28.0897 49.0745 27.3567 49.0745ZM17.3276 36.3864C17.2326 36.9626 17.1873 37.5543 17.1922 38.1452C17.1931 38.2393 17.1954 38.3339 17.1984 38.4286C17.3012 41.3249 18.6689 44.0288 20.9513 45.8463C23.3192 47.7316 26.3878 48.4753 29.3699 47.8866C30.3333 47.6966 31.2918 47.4424 32.2192 47.1318C41.751 43.9424 48.0974 35.0455 48.0113 24.9933C47.9039 12.4592 37.6091 2.17435 25.0622 2.06657C24.9947 2.06592 24.9255 2.06559 24.8579 2.06559C14.0782 2.06559 4.83587 9.3382 2.3387 19.8153C2.31096 19.932 2.2842 20.0492 2.25842 20.1662C2.15367 20.6343 2.06392 21.1041 1.99147 21.565C1.98984 21.5755 1.98853 21.5853 1.98756 21.5945C2.00909 21.9447 2.0946 22.2805 2.24145 22.593C2.72509 23.5794 3.7126 24.1969 4.81498 24.1969C4.88253 24.1969 4.95466 24.1861 5.02874 24.1645C5.3417 24.0714 5.6762 23.9922 6.02082 23.9293C6.04693 23.9237 6.07336 23.9185 6.09947 23.9142C8.12116 23.5591 10.1859 23.8425 12.0627 24.7351C15.9896 26.6024 18.2707 30.8762 17.6102 35.1281C17.5462 35.5484 17.4513 35.972 17.3276 36.3864ZM27.8622 43.447C27.841 43.447 27.8201 43.447 27.7989 43.447C23.9824 43.4126 20.8524 40.2684 20.8217 36.4381C20.8057 34.5276 21.5377 32.7314 22.8832 31.3811C24.2291 30.0301 26.0227 29.293 27.9229 29.311C31.7392 29.3441 34.8698 32.4867 34.9018 36.3166C34.9184 38.2284 34.1858 40.026 32.8393 41.3776C31.5081 42.7139 29.7423 43.447 27.8622 43.447ZM27.8077 42.4557C27.8257 42.4557 27.844 42.4557 27.8622 42.4557C29.4789 42.4557 30.9968 41.8248 32.1416 40.6759C33.2994 39.5136 33.9289 37.9683 33.9149 36.3241C33.8875 33.0315 31.1958 30.3295 27.9148 30.301C27.8972 30.301 27.8795 30.301 27.8622 30.301C26.2446 30.301 24.7261 30.9319 23.5813 32.0811C22.4247 33.2421 21.7952 34.7864 21.8089 36.4293C21.8354 39.7229 24.526 42.4266 27.8077 42.4557ZM39.3603 30.7766C38.3369 30.7766 37.351 30.3704 36.6252 29.6415C35.8416 28.8553 35.4324 27.7654 35.5019 26.6516C35.6249 24.7129 37.1734 23.1584 39.1041 23.0353C40.212 22.9642 41.2994 23.3756 42.0833 24.1622C42.8671 24.9487 43.276 26.039 43.2059 27.1528C43.0832 29.0912 41.5347 30.6456 39.6037 30.7688C39.5224 30.774 39.4412 30.7766 39.3603 30.7766ZM39.3495 24.0184C39.2885 24.0184 39.2278 24.0203 39.1664 24.0243C37.7305 24.116 36.5785 25.2724 36.4871 26.7141C36.4352 27.5436 36.7401 28.3554 37.3229 28.9408C37.9061 29.5262 38.7134 29.8322 39.5414 29.7801C40.9776 29.6884 42.1296 28.532 42.221 27.0902C42.2732 26.2604 41.9687 25.4486 41.3855 24.8632C40.8454 24.3211 40.1115 24.0184 39.3495 24.0184ZM13.994 20.2537C13.9783 20.2537 13.9627 20.2537 13.947 20.2537C11.1186 20.2281 8.79864 17.8976 8.7758 15.059C8.76405 13.6428 9.30709 12.3114 10.3044 11.3106C11.2906 10.321 12.5989 9.7775 13.9924 9.7775C14.008 9.7775 14.0237 9.7775 14.0394 9.7775C16.8671 9.80076 19.1877 12.13 19.2119 14.9699C19.2236 16.387 18.6806 17.7187 17.6823 18.7202C16.6958 19.7102 15.3872 20.2537 13.994 20.2537ZM13.9555 19.2627C15.097 19.2745 16.1753 18.8312 16.9843 18.0195C17.7936 17.2073 18.2338 16.1273 18.2244 14.9784C18.2048 12.6757 16.3234 10.7871 14.0306 10.7685C14.0178 10.7685 14.0051 10.7685 13.9924 10.7685C12.8622 10.7685 11.8013 11.2091 11.0018 12.0117C10.1931 12.8231 9.75287 13.9026 9.76233 15.0511C9.78093 17.3531 11.662 19.242 13.9555 19.2627ZM36.3449 18.8895C35.3214 18.8895 34.3365 18.4837 33.6108 17.7554C32.8272 16.9692 32.4177 15.8793 32.4872 14.7655C32.6086 12.8271 34.1564 11.2726 36.087 11.1491C37.1973 11.0807 38.284 11.4895 39.0682 12.2761C39.8514 13.062 40.261 14.1512 40.1914 15.2644C40.07 17.2034 38.5219 18.7585 36.5903 18.882C36.5084 18.8873 36.4264 18.8895 36.3449 18.8895ZM33.4724 14.8277C33.4205 15.6575 33.7253 16.4693 34.3088 17.0547C34.8923 17.6401 35.7 17.9461 36.5279 17.893C37.9642 17.8013 39.1158 16.6445 39.2062 15.2021C39.2581 14.373 38.9533 13.5619 38.3705 12.9771C37.7866 12.3914 36.9776 12.0854 36.1497 12.1381C34.7141 12.2299 33.5631 13.3863 33.4724 14.8277ZM26.1323 13.0649C25.1461 13.0649 24.2177 12.6974 23.4938 12.0156C22.7197 11.2864 22.2759 10.2568 22.2759 9.1911C22.2759 7.05453 24.0075 5.31664 26.1356 5.31664C27.1952 5.31664 28.2199 5.76119 28.9464 6.53628C29.6832 7.32218 30.053 8.35049 29.9877 9.43188C29.8696 11.3752 28.3214 12.9335 26.3865 13.0571C26.3013 13.0626 26.2168 13.0649 26.1323 13.0649ZM26.1356 6.30762C24.5515 6.30762 23.2631 7.60129 23.2631 9.1911C23.2631 9.99601 23.5852 10.7426 24.1697 11.2933C24.7542 11.844 25.5201 12.1191 26.3242 12.0677C27.7399 11.9773 28.9163 10.793 29.0025 9.37161C29.0511 8.56605 28.776 7.80014 28.2277 7.21538C27.6788 6.62997 26.9358 6.30762 26.1356 6.30762Z"/>
</mask>
<path d="M27.3567 49.0745C24.824 49.0745 22.3507 48.2247 20.3381 46.6224C17.8289 44.6247 16.3251 41.6505 16.2122 38.4627C16.2089 38.3598 16.2066 38.2583 16.2053 38.1554C16.1998 37.4946 16.2513 36.8345 16.3593 36.1911C16.3629 36.1705 16.3675 36.1499 16.3737 36.1299C16.4882 35.7505 16.576 35.3626 16.6351 34.9767C17.229 31.154 15.1754 27.3114 11.6408 25.6305C9.94933 24.8262 8.09015 24.5704 6.26394 24.8911C6.24502 24.8944 6.23196 24.897 6.21923 24.8999C6.21434 24.9009 6.20944 24.9019 6.20422 24.9029C5.89224 24.9595 5.59004 25.031 5.30613 25.1155C5.13969 25.1636 4.97587 25.1876 4.81563 25.1876C3.33437 25.1876 2.00746 24.3581 1.35282 23.0228C1.14298 22.5763 1.0255 22.1046 1.0007 21.6138C0.999719 21.5948 0.999719 21.5755 1.00102 21.5565C1.00461 21.5008 1.01016 21.4517 1.01767 21.4058C1.09273 20.9285 1.18639 20.4371 1.29539 19.9503C1.32215 19.8291 1.35021 19.7059 1.37958 19.5837C2.62392 14.3632 5.63965 9.64057 9.87166 6.28665C14.1709 2.87934 19.5718 1.03006 25.0714 1.07527C31.4102 1.12965 37.3895 3.64591 41.9077 8.15984C46.4265 12.6744 48.9449 18.6497 48.9991 24.9844C49.0435 30.1847 47.4574 35.1507 44.4117 39.3449C41.4302 43.451 37.3222 46.4688 32.5322 48.0717C31.5656 48.3957 30.5657 48.6604 29.5612 48.8586C28.8282 49.0034 28.0897 49.0745 27.3567 49.0745ZM17.3276 36.3864C17.2326 36.9626 17.1873 37.5543 17.1922 38.1452C17.1931 38.2393 17.1954 38.3339 17.1984 38.4286C17.3012 41.3249 18.6689 44.0288 20.9513 45.8463C23.3192 47.7316 26.3878 48.4753 29.3699 47.8866C30.3333 47.6966 31.2918 47.4424 32.2192 47.1318C41.751 43.9424 48.0974 35.0455 48.0113 24.9933C47.9039 12.4592 37.6091 2.17435 25.0622 2.06657C24.9947 2.06592 24.9255 2.06559 24.8579 2.06559C14.0782 2.06559 4.83587 9.3382 2.3387 19.8153C2.31096 19.932 2.2842 20.0492 2.25842 20.1662C2.15367 20.6343 2.06392 21.1041 1.99147 21.565C1.98984 21.5755 1.98853 21.5853 1.98756 21.5945C2.00909 21.9447 2.0946 22.2805 2.24145 22.593C2.72509 23.5794 3.7126 24.1969 4.81498 24.1969C4.88253 24.1969 4.95466 24.1861 5.02874 24.1645C5.3417 24.0714 5.6762 23.9922 6.02082 23.9293C6.04693 23.9237 6.07336 23.9185 6.09947 23.9142C8.12116 23.5591 10.1859 23.8425 12.0627 24.7351C15.9896 26.6024 18.2707 30.8762 17.6102 35.1281C17.5462 35.5484 17.4513 35.972 17.3276 36.3864ZM27.8622 43.447C27.841 43.447 27.8201 43.447 27.7989 43.447C23.9824 43.4126 20.8524 40.2684 20.8217 36.4381C20.8057 34.5276 21.5377 32.7314 22.8832 31.3811C24.2291 30.0301 26.0227 29.293 27.9229 29.311C31.7392 29.3441 34.8698 32.4867 34.9018 36.3166C34.9184 38.2284 34.1858 40.026 32.8393 41.3776C31.5081 42.7139 29.7423 43.447 27.8622 43.447ZM27.8077 42.4557C27.8257 42.4557 27.844 42.4557 27.8622 42.4557C29.4789 42.4557 30.9968 41.8248 32.1416 40.6759C33.2994 39.5136 33.9289 37.9683 33.9149 36.3241C33.8875 33.0315 31.1958 30.3295 27.9148 30.301C27.8972 30.301 27.8795 30.301 27.8622 30.301C26.2446 30.301 24.7261 30.9319 23.5813 32.0811C22.4247 33.2421 21.7952 34.7864 21.8089 36.4293C21.8354 39.7229 24.526 42.4266 27.8077 42.4557ZM39.3603 30.7766C38.3369 30.7766 37.351 30.3704 36.6252 29.6415C35.8416 28.8553 35.4324 27.7654 35.5019 26.6516C35.6249 24.7129 37.1734 23.1584 39.1041 23.0353C40.212 22.9642 41.2994 23.3756 42.0833 24.1622C42.8671 24.9487 43.276 26.039 43.2059 27.1528C43.0832 29.0912 41.5347 30.6456 39.6037 30.7688C39.5224 30.774 39.4412 30.7766 39.3603 30.7766ZM39.3495 24.0184C39.2885 24.0184 39.2278 24.0203 39.1664 24.0243C37.7305 24.116 36.5785 25.2724 36.4871 26.7141C36.4352 27.5436 36.7401 28.3554 37.3229 28.9408C37.9061 29.5262 38.7134 29.8322 39.5414 29.7801C40.9776 29.6884 42.1296 28.532 42.221 27.0902C42.2732 26.2604 41.9687 25.4486 41.3855 24.8632C40.8454 24.3211 40.1115 24.0184 39.3495 24.0184ZM13.994 20.2537C13.9783 20.2537 13.9627 20.2537 13.947 20.2537C11.1186 20.2281 8.79864 17.8976 8.7758 15.059C8.76405 13.6428 9.30709 12.3114 10.3044 11.3106C11.2906 10.321 12.5989 9.7775 13.9924 9.7775C14.008 9.7775 14.0237 9.7775 14.0394 9.7775C16.8671 9.80076 19.1877 12.13 19.2119 14.9699C19.2236 16.387 18.6806 17.7187 17.6823 18.7202C16.6958 19.7102 15.3872 20.2537 13.994 20.2537ZM13.9555 19.2627C15.097 19.2745 16.1753 18.8312 16.9843 18.0195C17.7936 17.2073 18.2338 16.1273 18.2244 14.9784C18.2048 12.6757 16.3234 10.7871 14.0306 10.7685C14.0178 10.7685 14.0051 10.7685 13.9924 10.7685C12.8622 10.7685 11.8013 11.2091 11.0018 12.0117C10.1931 12.8231 9.75287 13.9026 9.76233 15.0511C9.78093 17.3531 11.662 19.242 13.9555 19.2627ZM36.3449 18.8895C35.3214 18.8895 34.3365 18.4837 33.6108 17.7554C32.8272 16.9692 32.4177 15.8793 32.4872 14.7655C32.6086 12.8271 34.1564 11.2726 36.087 11.1491C37.1973 11.0807 38.284 11.4895 39.0682 12.2761C39.8514 13.062 40.261 14.1512 40.1914 15.2644C40.07 17.2034 38.5219 18.7585 36.5903 18.882C36.5084 18.8873 36.4264 18.8895 36.3449 18.8895ZM33.4724 14.8277C33.4205 15.6575 33.7253 16.4693 34.3088 17.0547C34.8923 17.6401 35.7 17.9461 36.5279 17.893C37.9642 17.8013 39.1158 16.6445 39.2062 15.2021C39.2581 14.373 38.9533 13.5619 38.3705 12.9771C37.7866 12.3914 36.9776 12.0854 36.1497 12.1381C34.7141 12.2299 33.5631 13.3863 33.4724 14.8277ZM26.1323 13.0649C25.1461 13.0649 24.2177 12.6974 23.4938 12.0156C22.7197 11.2864 22.2759 10.2568 22.2759 9.1911C22.2759 7.05453 24.0075 5.31664 26.1356 5.31664C27.1952 5.31664 28.2199 5.76119 28.9464 6.53628C29.6832 7.32218 30.053 8.35049 29.9877 9.43188C29.8696 11.3752 28.3214 12.9335 26.3865 13.0571C26.3013 13.0626 26.2168 13.0649 26.1323 13.0649ZM26.1356 6.30762C24.5515 6.30762 23.2631 7.60129 23.2631 9.1911C23.2631 9.99601 23.5852 10.7426 24.1697 11.2933C24.7542 11.844 25.5201 12.1191 26.3242 12.0677C27.7399 11.9773 28.9163 10.793 29.0025 9.37161C29.0511 8.56605 28.776 7.80014 28.2277 7.21538C27.6788 6.62997 26.9358 6.30762 26.1356 6.30762Z" fill="#553433"/>
<path d="M27.3567 49.0745C24.824 49.0745 22.3507 48.2247 20.3381 46.6224C17.8289 44.6247 16.3251 41.6505 16.2122 38.4627C16.2089 38.3598 16.2066 38.2583 16.2053 38.1554C16.1998 37.4946 16.2513 36.8345 16.3593 36.1911C16.3629 36.1705 16.3675 36.1499 16.3737 36.1299C16.4882 35.7505 16.576 35.3626 16.6351 34.9767C17.229 31.154 15.1754 27.3114 11.6408 25.6305C9.94933 24.8262 8.09015 24.5704 6.26394 24.8911C6.24502 24.8944 6.23196 24.897 6.21923 24.8999C6.21434 24.9009 6.20944 24.9019 6.20422 24.9029C5.89224 24.9595 5.59004 25.031 5.30613 25.1155C5.13969 25.1636 4.97587 25.1876 4.81563 25.1876C3.33437 25.1876 2.00746 24.3581 1.35282 23.0228C1.14298 22.5763 1.0255 22.1046 1.0007 21.6138C0.999719 21.5948 0.999719 21.5755 1.00102 21.5565C1.00461 21.5008 1.01016 21.4517 1.01767 21.4058C1.09273 20.9285 1.18639 20.4371 1.29539 19.9503C1.32215 19.8291 1.35021 19.7059 1.37958 19.5837C2.62392 14.3632 5.63965 9.64057 9.87166 6.28665C14.1709 2.87934 19.5718 1.03006 25.0714 1.07527C31.4102 1.12965 37.3895 3.64591 41.9077 8.15984C46.4265 12.6744 48.9449 18.6497 48.9991 24.9844C49.0435 30.1847 47.4574 35.1507 44.4117 39.3449C41.4302 43.451 37.3222 46.4688 32.5322 48.0717C31.5656 48.3957 30.5657 48.6604 29.5612 48.8586C28.8282 49.0034 28.0897 49.0745 27.3567 49.0745ZM17.3276 36.3864C17.2326 36.9626 17.1873 37.5543 17.1922 38.1452C17.1931 38.2393 17.1954 38.3339 17.1984 38.4286C17.3012 41.3249 18.6689 44.0288 20.9513 45.8463C23.3192 47.7316 26.3878 48.4753 29.3699 47.8866C30.3333 47.6966 31.2918 47.4424 32.2192 47.1318C41.751 43.9424 48.0974 35.0455 48.0113 24.9933C47.9039 12.4592 37.6091 2.17435 25.0622 2.06657C24.9947 2.06592 24.9255 2.06559 24.8579 2.06559C14.0782 2.06559 4.83587 9.3382 2.3387 19.8153C2.31096 19.932 2.2842 20.0492 2.25842 20.1662C2.15367 20.6343 2.06392 21.1041 1.99147 21.565C1.98984 21.5755 1.98853 21.5853 1.98756 21.5945C2.00909 21.9447 2.0946 22.2805 2.24145 22.593C2.72509 23.5794 3.7126 24.1969 4.81498 24.1969C4.88253 24.1969 4.95466 24.1861 5.02874 24.1645C5.3417 24.0714 5.6762 23.9922 6.02082 23.9293C6.04693 23.9237 6.07336 23.9185 6.09947 23.9142C8.12116 23.5591 10.1859 23.8425 12.0627 24.7351C15.9896 26.6024 18.2707 30.8762 17.6102 35.1281C17.5462 35.5484 17.4513 35.972 17.3276 36.3864ZM27.8622 43.447C27.841 43.447 27.8201 43.447 27.7989 43.447C23.9824 43.4126 20.8524 40.2684 20.8217 36.4381C20.8057 34.5276 21.5377 32.7314 22.8832 31.3811C24.2291 30.0301 26.0227 29.293 27.9229 29.311C31.7392 29.3441 34.8698 32.4867 34.9018 36.3166C34.9184 38.2284 34.1858 40.026 32.8393 41.3776C31.5081 42.7139 29.7423 43.447 27.8622 43.447ZM27.8077 42.4557C27.8257 42.4557 27.844 42.4557 27.8622 42.4557C29.4789 42.4557 30.9968 41.8248 32.1416 40.6759C33.2994 39.5136 33.9289 37.9683 33.9149 36.3241C33.8875 33.0315 31.1958 30.3295 27.9148 30.301C27.8972 30.301 27.8795 30.301 27.8622 30.301C26.2446 30.301 24.7261 30.9319 23.5813 32.0811C22.4247 33.2421 21.7952 34.7864 21.8089 36.4293C21.8354 39.7229 24.526 42.4266 27.8077 42.4557ZM39.3603 30.7766C38.3369 30.7766 37.351 30.3704 36.6252 29.6415C35.8416 28.8553 35.4324 27.7654 35.5019 26.6516C35.6249 24.7129 37.1734 23.1584 39.1041 23.0353C40.212 22.9642 41.2994 23.3756 42.0833 24.1622C42.8671 24.9487 43.276 26.039 43.2059 27.1528C43.0832 29.0912 41.5347 30.6456 39.6037 30.7688C39.5224 30.774 39.4412 30.7766 39.3603 30.7766ZM39.3495 24.0184C39.2885 24.0184 39.2278 24.0203 39.1664 24.0243C37.7305 24.116 36.5785 25.2724 36.4871 26.7141C36.4352 27.5436 36.7401 28.3554 37.3229 28.9408C37.9061 29.5262 38.7134 29.8322 39.5414 29.7801C40.9776 29.6884 42.1296 28.532 42.221 27.0902C42.2732 26.2604 41.9687 25.4486 41.3855 24.8632C40.8454 24.3211 40.1115 24.0184 39.3495 24.0184ZM13.994 20.2537C13.9783 20.2537 13.9627 20.2537 13.947 20.2537C11.1186 20.2281 8.79864 17.8976 8.7758 15.059C8.76405 13.6428 9.30709 12.3114 10.3044 11.3106C11.2906 10.321 12.5989 9.7775 13.9924 9.7775C14.008 9.7775 14.0237 9.7775 14.0394 9.7775C16.8671 9.80076 19.1877 12.13 19.2119 14.9699C19.2236 16.387 18.6806 17.7187 17.6823 18.7202C16.6958 19.7102 15.3872 20.2537 13.994 20.2537ZM13.9555 19.2627C15.097 19.2745 16.1753 18.8312 16.9843 18.0195C17.7936 17.2073 18.2338 16.1273 18.2244 14.9784C18.2048 12.6757 16.3234 10.7871 14.0306 10.7685C14.0178 10.7685 14.0051 10.7685 13.9924 10.7685C12.8622 10.7685 11.8013 11.2091 11.0018 12.0117C10.1931 12.8231 9.75287 13.9026 9.76233 15.0511C9.78093 17.3531 11.662 19.242 13.9555 19.2627ZM36.3449 18.8895C35.3214 18.8895 34.3365 18.4837 33.6108 17.7554C32.8272 16.9692 32.4177 15.8793 32.4872 14.7655C32.6086 12.8271 34.1564 11.2726 36.087 11.1491C37.1973 11.0807 38.284 11.4895 39.0682 12.2761C39.8514 13.062 40.261 14.1512 40.1914 15.2644C40.07 17.2034 38.5219 18.7585 36.5903 18.882C36.5084 18.8873 36.4264 18.8895 36.3449 18.8895ZM33.4724 14.8277C33.4205 15.6575 33.7253 16.4693 34.3088 17.0547C34.8923 17.6401 35.7 17.9461 36.5279 17.893C37.9642 17.8013 39.1158 16.6445 39.2062 15.2021C39.2581 14.373 38.9533 13.5619 38.3705 12.9771C37.7866 12.3914 36.9776 12.0854 36.1497 12.1381C34.7141 12.2299 33.5631 13.3863 33.4724 14.8277ZM26.1323 13.0649C25.1461 13.0649 24.2177 12.6974 23.4938 12.0156C22.7197 11.2864 22.2759 10.2568 22.2759 9.1911C22.2759 7.05453 24.0075 5.31664 26.1356 5.31664C27.1952 5.31664 28.2199 5.76119 28.9464 6.53628C29.6832 7.32218 30.053 8.35049 29.9877 9.43188C29.8696 11.3752 28.3214 12.9335 26.3865 13.0571C26.3013 13.0626 26.2168 13.0649 26.1323 13.0649ZM26.1356 6.30762C24.5515 6.30762 23.2631 7.60129 23.2631 9.1911C23.2631 9.99601 23.5852 10.7426 24.1697 11.2933C24.7542 11.844 25.5201 12.1191 26.3242 12.0677C27.7399 11.9773 28.9163 10.793 29.0025 9.37161C29.0511 8.56605 28.776 7.80014 28.2277 7.21538C27.6788 6.62997 26.9358 6.30762 26.1356 6.30762Z" stroke="#553433" mask="url(#path-1-outside-1_3086_4063)"/>
</svg>
