<svg width="50" height="44" viewBox="0 0 50 44" fill="none" xmlns="http://www.w3.org/2000/svg">
<path d="M7.93262 19.9253C8.11924 19.7792 8.35719 19.739 8.57422 19.8198L8.66602 19.8618L24.1846 28.4302L24.2998 28.5093L24.3975 28.6079L24.3984 28.6089L24.4766 28.6958C24.6651 28.8828 24.8876 28.9683 25.1006 28.9683C25.3441 28.9683 25.5997 28.856 25.8027 28.6089C25.8322 28.573 25.8647 28.5394 25.9004 28.5093L26.0166 28.4292L41.335 19.9741V19.9731C41.5741 19.841 41.8555 19.8689 42.0693 20.0366L42.1426 20.1021C42.3016 20.2645 42.3848 20.4945 42.3848 20.7251V33.5718C42.3848 33.7937 42.3792 34.0115 42.3682 34.2183V34.2192C42.3602 34.362 42.3204 34.5026 42.25 34.6255L42.1689 34.7427C37.585 40.2547 31.5123 43.3009 25.04 43.3228L25.0391 43.3247H24.9688C24.8966 43.3247 24.8222 43.3249 24.7471 43.3237V43.3228C18.585 43.2568 12.7573 40.3989 8.2666 35.2788L7.83594 34.7769C7.74467 34.6679 7.68368 34.5351 7.6543 34.395L7.63574 34.2534C7.6231 34.0288 7.61622 33.8001 7.61621 33.5728V20.6138C7.61621 20.3505 7.72585 20.0873 7.93262 19.9253ZM9.07715 33.5718C9.07715 33.662 9.0787 33.7529 9.08105 33.8433C13.3432 38.8279 18.9018 41.5915 24.7617 41.6538L25.332 41.6519C31.1879 41.5462 36.6937 38.7828 40.9199 33.813C40.9217 33.7343 40.9238 33.6541 40.9238 33.5728V22.0552L26.7617 29.8726C26.2975 30.3753 25.7045 30.6362 25.1006 30.6362C24.497 30.6362 23.904 30.3755 23.4395 29.8735L9.07715 21.9438V33.5718Z" fill="#553433" stroke="#553433" stroke-width="0.5"/>
<path d="M47.0225 25.7205C47.428 25.7088 47.9002 25.774 48.2793 26.2019L48.3564 26.2966C48.7287 26.7882 48.8681 27.5478 48.8682 28.6404C48.8682 29.8804 48.6914 31.5093 48.4072 32.948L48.2783 33.5515C48.0334 34.6248 47.7559 35.4459 47.4336 36.0037C47.1343 36.5214 46.7624 36.8669 46.2988 36.908L46.2051 36.9119C45.6976 36.9119 45.2957 36.5558 44.9766 36.0037C44.6945 35.5156 44.4473 34.8259 44.2256 33.9421L44.1318 33.5515C43.7738 31.9826 43.542 30.0577 43.542 28.6404C43.542 27.475 43.7004 26.6881 44.1309 26.2019L44.2275 26.1023C44.7189 25.6409 45.3355 25.708 45.7646 25.7468L45.9902 25.7664C46.0632 25.7714 46.1346 25.7742 46.2051 25.7742C46.3464 25.7742 46.4922 25.7609 46.6455 25.7468L47.0225 25.7205ZM45.1592 27.3992C45.1571 27.3997 45.155 27.3997 45.1533 27.4001C45.1405 27.4229 45.1113 27.485 45.082 27.6189C45.0406 27.8081 45.003 28.1239 45.0029 28.6404C45.0029 29.8585 45.2014 31.5615 45.5098 32.9714L45.6602 33.5994C45.8084 34.1678 45.9499 34.5634 46.0693 34.8308C46.119 34.9419 46.1659 35.0289 46.2051 35.0964C46.2442 35.0289 46.2912 34.9419 46.3408 34.8308C46.5001 34.4742 46.6994 33.8898 46.9004 32.9714L47.0107 32.4304C47.2554 31.1434 47.4072 29.7062 47.4072 28.6404C47.4072 28.1239 47.3694 27.8081 47.3281 27.6189C47.2988 27.4847 47.2685 27.4234 47.2559 27.4011C47.2365 27.3959 47.2041 27.3912 47.1553 27.3894C47.1034 27.3875 47.0448 27.3891 46.9795 27.3933L46.7627 27.4109C46.6026 27.4255 46.4087 27.4431 46.2051 27.4431C46.0015 27.4431 45.8076 27.4255 45.6475 27.4109V27.4099C45.5115 27.3976 45.3945 27.3884 45.2959 27.3884C45.2312 27.3884 45.1869 27.3925 45.1592 27.3992Z" fill="#553433" stroke="#553433" stroke-width="0.5"/>
<path d="M46.2051 17.605C46.6565 17.605 46.9434 18.0317 46.9434 18.4497V25.6372C46.9434 26.0552 46.6565 26.4819 46.2051 26.4819C45.7536 26.4819 45.4668 26.0553 45.4668 25.6372V18.4497C45.4668 18.0316 45.7536 17.605 46.2051 17.605Z" fill="#553433" stroke="#553433" stroke-width="0.5"/>
<path d="M25.0146 0.824463C25.6408 0.824463 26.2225 1.10079 26.6719 1.58618L48.3516 13.3206H48.3525C48.4373 13.3661 48.5107 13.4291 48.5713 13.5032H48.5723C48.921 13.9282 49.1493 14.4586 49.2383 15.0344L49.248 15.1262C49.2498 15.1566 49.2501 15.1869 49.249 15.217V15.218C49.2356 15.5704 49.215 15.9428 49.1875 16.3254C49.1831 16.3884 49.1728 16.4493 49.1572 16.5071V16.509C49.039 16.9392 48.8428 17.3256 48.5723 17.6545L48.5713 17.6536C48.5415 17.69 48.5093 17.7241 48.4736 17.7542L48.3584 17.8333L26.6729 29.804C26.2092 30.3044 25.6183 30.5645 25.0156 30.5647V30.5657H25.0146V30.5647C24.4112 30.5645 23.8189 30.3045 23.3545 29.803L7.94141 21.2932L1.67285 17.8333C1.63203 17.8107 1.59333 17.7842 1.55762 17.7542L1.45996 17.6545C0.998757 17.0939 0.75 16.3551 0.75 15.5784C0.750073 14.8017 0.998924 14.064 1.45996 13.5032L1.55957 13.4016L1.67773 13.3206L23.3555 1.58716C23.8053 1.10089 24.388 0.824571 25.0146 0.824463ZM25.0156 2.49438C24.7935 2.49438 24.5738 2.5853 24.3896 2.76978L24.3135 2.85474C24.2529 2.9285 24.1789 2.99058 24.0947 3.03638V3.03735L2.44922 14.7522C2.29746 14.9808 2.211 15.2684 2.21094 15.5784C2.21094 15.8882 2.29722 16.1776 2.44922 16.4065L8.58008 19.7903L24.0996 28.3586L24.2148 28.4377C24.2503 28.4676 24.2829 28.5016 24.3125 28.5374L24.3916 28.6243C24.5801 28.8111 24.8027 28.8967 25.0156 28.8967C25.259 28.8966 25.5139 28.7843 25.7168 28.5374C25.7758 28.4656 25.848 28.4042 25.9307 28.3586L47.5811 16.4055C47.6462 16.3077 47.6987 16.1998 47.7383 16.0813C47.7578 15.795 47.774 15.5157 47.7852 15.2493C47.7472 15.065 47.6777 14.8968 47.582 14.7522L25.9365 3.03638V3.03735C25.8938 3.01438 25.8539 2.98684 25.8174 2.9563L25.7168 2.85474C25.5193 2.61401 25.2694 2.49448 25.0156 2.49438Z" fill="#553433" stroke="#553433" stroke-width="0.5"/>
</svg>
