<svg width="50" height="40" viewBox="0 0 50 40" fill="none" xmlns="http://www.w3.org/2000/svg">
<path d="M25.2148 0.830322C26.1568 0.881124 27.0308 1.24216 27.7598 1.81958L27.8379 1.88306L28.0127 2.03052C28.1849 2.18241 28.3498 2.34771 28.5049 2.52661L28.6748 2.73364C29.4441 3.71418 29.8802 4.9491 29.9268 6.26099L29.9307 6.54321C29.9215 7.74233 29.5797 8.85771 29.002 9.77271L29.0029 9.77368C28.6303 10.3662 28.1586 10.8759 27.6143 11.2668L27.5938 11.2815L27.5723 11.2913C27.3638 11.3863 27.1625 11.508 26.9707 11.6526L26.9697 11.6516C26.823 11.7628 26.6831 11.8888 26.5498 12.0276L26.4189 12.1711C25.7562 12.9368 25.3901 13.958 25.3984 15.054L25.4004 15.304L25.1504 15.3059L24.1787 15.3157L23.9287 15.3176L23.9268 15.0676C23.9176 13.8578 24.2402 12.7005 24.8477 11.7356L24.9639 11.5579C25.0839 11.3821 25.2139 11.2134 25.3535 11.052V11.051L25.5557 10.8303C25.7627 10.6169 25.984 10.4264 26.2158 10.2581L26.2363 10.2424L26.2588 10.2327C26.4774 10.133 26.6868 10.0067 26.8818 9.85767H26.8828L27.0537 9.71899C27.8918 8.99742 28.4497 7.83969 28.46 6.53345L28.459 6.4231V6.42114C28.4434 5.36625 28.0811 4.38694 27.4404 3.64673V3.64575C27.3857 3.58321 27.3293 3.5236 27.2725 3.46606L27.0967 3.30005L27.0928 3.29614L26.8682 3.10767C26.4065 2.752 25.8718 2.52405 25.3008 2.46216L25.0127 2.44556H25.0039C24.3927 2.44556 23.7888 2.61959 23.2656 2.9729L23.0469 3.13599C22.2476 3.78429 21.7357 4.73409 21.5859 5.7981L21.5605 6.01196C21.5271 6.36698 21.2779 6.69697 20.9111 6.74048L20.8359 6.74536C20.368 6.75011 20.0556 6.30393 20.0957 5.86157L20.1211 5.62427C20.2725 4.44434 20.7451 3.35137 21.4961 2.4856L21.6758 2.28931C22.5889 1.3355 23.7701 0.814655 25.0254 0.824463L25.2148 0.830322Z" fill="#553433" stroke="#553433" stroke-width="0.5"/>
<path d="M27.6279 3.11304L27.8174 3.31714L27.8184 3.31812L27.9502 3.47827C28.5898 4.29108 28.9418 5.32169 28.958 6.41284L28.9619 6.66577H28.4268L28.4248 6.41772C28.4154 5.15096 27.891 4.02216 27.0938 3.29565L27.4268 2.92358L27.6279 3.11304Z" fill="#553433" stroke="#553433" stroke-width="0.5"/>
<path d="M24.9336 13.6609L25.1455 13.6677L25.4551 13.696C26.9916 13.8937 28.367 14.9201 29.1904 16.4617L29.5508 17.113C29.6743 17.3288 29.8011 17.5426 29.9297 17.7527L30.2627 18.282C33.6482 23.5156 38.6812 27.0187 44.2109 28.0115L44.7656 28.1023L44.7676 28.1033L44.9453 28.1287H44.9473L45.1309 28.156C45.1943 28.1665 45.2595 28.1786 45.3262 28.1941L45.6436 28.282C45.9583 28.3816 46.2639 28.5174 46.5557 28.6873L46.8584 28.8787C48.3356 29.8903 49.2355 31.6909 49.25 33.6541L49.2461 33.9353C49.1997 35.2461 48.7635 36.4805 47.9941 37.4597L47.8242 37.6648C46.8904 38.7418 45.638 39.336 44.3008 39.323V39.324C44.0103 39.3217 43.7186 39.2884 43.4336 39.2263H6.56934C6.34842 39.2741 6.12369 39.3047 5.89746 39.3171L5.66016 39.324H5.61133C3.00454 39.2982 0.906728 36.9201 0.758789 34.031L0.75 33.7498C0.734958 31.6006 1.76181 29.65 3.45801 28.6755L3.60645 28.5945C3.95692 28.415 4.33121 28.2984 4.72461 28.2449L5.19043 28.1755C5.34578 28.1505 5.50081 28.1231 5.6543 28.0945L6.18555 27.9871C11.4864 26.8309 16.2955 23.3413 19.5127 18.2986L19.8291 17.7888C20.0823 17.3697 20.3289 16.9344 20.5605 16.4949L20.7363 16.1824C21.6562 14.6554 23.1294 13.7092 24.75 13.6628L24.9326 13.6609H24.9336ZM24.7891 15.2654H24.7881C23.6711 15.2972 22.6208 15.9544 21.9492 17.071L21.8203 17.3005C21.6971 17.5343 21.5695 17.7675 21.4395 17.9978L21.042 18.6785C17.5128 24.5178 11.9971 28.5317 5.89941 29.6755H5.89844C5.56976 29.7368 5.23573 29.7903 4.90527 29.8357H4.9043C4.62701 29.8735 4.37001 29.9602 4.13965 30.0925V30.0935C2.94479 30.7801 2.19594 32.1681 2.20703 33.7371L2.21289 33.9431C2.32073 36.0564 3.84587 37.703 5.62598 37.7205C5.86587 37.7235 6.10924 37.6966 6.34277 37.6414L6.4209 37.6277C6.44671 37.6247 6.47248 37.6238 6.49805 37.6238H43.5068C43.5598 37.6238 43.6109 37.6303 43.6592 37.6414H43.6621L43.8223 37.6755C43.9838 37.7046 44.1478 37.7192 44.3115 37.7205H44.3438C45.2537 37.7203 46.1143 37.3141 46.7705 36.5574L46.8916 36.4109C47.4405 35.7121 47.7574 34.8243 47.791 33.8718L47.7939 33.6667C47.7835 32.2368 47.1275 30.9521 46.0869 30.239L45.873 30.1042C45.6697 29.9857 45.4579 29.8916 45.2412 29.823L45.0225 29.7625L44.7676 29.7205C44.7005 29.7112 44.6327 29.7017 44.5654 29.6912V29.6902C38.4068 28.7762 32.7971 24.9653 29.0762 19.2126L28.7227 18.6501C28.5858 18.4265 28.4508 18.199 28.3193 17.9695L27.9355 17.2761C27.3307 16.1438 26.3466 15.426 25.2861 15.2888L25.0732 15.2693L24.9209 15.2644H24.8867L24.7891 15.2654Z" fill="#553433" stroke="#553433" stroke-width="0.5"/>
</svg>
