<svg width="50" height="52" viewBox="0 0 50 52" fill="none" xmlns="http://www.w3.org/2000/svg">
<path d="M7.57715 30.9812C8.14614 30.9814 8.60645 31.4435 8.60645 32.0125C8.60643 32.5814 8.14613 33.0435 7.57715 33.0437C7.00797 33.0437 6.54689 32.5816 6.54688 32.0125C6.54688 31.4433 7.00796 30.9812 7.57715 30.9812Z" fill="#553433" stroke="#553433" stroke-width="0.5"/>
<path d="M18.0273 28.7678C18.5963 28.7681 19.0566 29.2301 19.0566 29.7991C19.0566 30.368 18.5963 30.8301 18.0273 30.8303C17.4582 30.8303 16.9971 30.3682 16.9971 29.7991C16.9971 29.23 17.4582 28.7678 18.0273 28.7678Z" fill="#553433" stroke="#553433" stroke-width="0.5"/>
<path d="M28.4834 31.0334C29.0524 31.0337 29.5127 31.4957 29.5127 32.0647C29.5127 32.6337 29.0524 33.0957 28.4834 33.0959C27.9142 33.0959 27.4531 32.6338 27.4531 32.0647C27.4531 31.4956 27.9142 31.0334 28.4834 31.0334Z" fill="#553433" stroke="#553433" stroke-width="0.5"/>
<path d="M18.2734 26.0461V26.0471C21.3483 26.0341 24.1547 26.0979 27.084 26.9485L27.5938 27.1038C29.9414 27.8588 31.8696 29.0114 33.207 30.4739L33.4844 30.7913L33.4854 30.7922L33.6709 31.0247C34.094 31.5716 34.446 32.1507 34.7109 32.7581L34.8506 33.0989C35.1552 33.8977 35.3095 34.7267 35.3096 35.5667C35.3096 37.0157 33.8237 38.0959 32.1357 38.0959H32.0322L32.0254 38.0891H3.9248C2.23684 38.0891 0.75014 37.0098 0.75 35.5608C0.75 31.5428 4.55407 27.722 9.50293 26.593L9.96094 26.4954C12.2755 26.0394 14.969 26.0461 17.3252 26.0461H18.2734ZM17 27.1907C14.7344 27.1907 12.2594 27.2088 10.165 27.6233L9.75098 27.7122C5.22779 28.7455 1.89355 32.1534 1.89355 35.5608C1.89363 35.9082 2.0907 36.2467 2.45605 36.5081C2.82094 36.769 3.33727 36.9377 3.91797 36.9377H32.123C32.7037 36.9377 33.2202 36.769 33.585 36.5081C33.9503 36.2467 34.1474 35.9082 34.1475 35.5608C34.1475 34.7631 33.9794 33.9702 33.6484 33.2131V33.2122C33.3922 32.6236 33.0337 32.0518 32.5928 31.5217V31.5208C31.3273 29.9946 29.3225 28.7928 26.7559 28.0471V28.0461C24.3269 27.3438 21.953 27.2056 19.3828 27.1907H17Z" fill="#553433" stroke="#553433" stroke-width="0.5"/>
<path d="M2 38.8633C2.99265 38.8633 3.51136 39.2817 3.93652 39.6211L4.2041 39.8262C4.28888 39.8866 4.37208 39.9393 4.46289 39.9834C4.63792 40.0684 4.84977 40.126 5.15234 40.126C5.45468 40.1259 5.66587 40.0683 5.84082 39.9834C6.02193 39.8954 6.17339 39.7745 6.36523 39.6221L6.70703 39.3594C7.07869 39.0981 7.55989 38.8633 8.30371 38.8633C9.29594 38.8633 9.82128 39.2807 10.2422 39.6221H10.2412C10.4327 39.7742 10.5871 39.8952 10.7695 39.9834C10.9458 40.0686 11.1571 40.126 11.4561 40.126C11.7549 40.1259 11.9675 40.0686 12.1445 39.9834C12.3276 39.8952 12.4826 39.7735 12.6699 39.6221L13.0107 39.3594C13.3824 39.0981 13.8636 38.8633 14.6074 38.8633C15.5997 38.8633 16.125 39.2807 16.5459 39.6221H16.5449C16.7365 39.7742 16.8908 39.8952 17.0732 39.9834C17.2495 40.0686 17.4608 40.126 17.7598 40.126C18.0586 40.1259 18.2712 40.0686 18.4482 39.9834C18.6313 39.8952 18.7863 39.7735 18.9736 39.6221L19.3145 39.3594C19.6861 39.098 20.1673 38.8633 20.9111 38.8633C21.9037 38.8633 22.4225 39.2817 22.8477 39.6211L23.1152 39.8262C23.2008 39.8869 23.2854 39.9391 23.377 39.9834C23.5533 40.0687 23.7645 40.126 24.0635 40.126C24.3626 40.126 24.5758 40.0687 24.7529 39.9834C24.9358 39.8952 25.0901 39.7734 25.2773 39.6221L25.6182 39.3594C25.9898 39.098 26.4711 38.8634 27.2148 38.8633C28.207 38.8633 28.7324 39.2807 29.1533 39.6221H29.1523C29.3438 39.7742 29.4977 39.8952 29.6807 39.9834C29.8577 40.0687 30.0714 40.126 30.374 40.126C30.6764 40.1259 30.8895 40.0686 31.0664 39.9834C31.2492 39.8953 31.4026 39.7739 31.5938 39.6221L31.9346 39.3594C32.3063 39.0979 32.7881 38.8633 33.5322 38.8633H33.7822V40.0146H33.5322C33.2297 40.0146 33.0168 40.072 32.8398 40.1572C32.6568 40.2454 32.502 40.3655 32.3105 40.5176L32.3115 40.5186C31.8907 40.8598 31.3658 41.2772 30.374 41.2773C29.3819 41.2773 28.8564 40.8599 28.4355 40.5186V40.5176C28.2445 40.3658 28.09 40.2453 27.9072 40.1572C27.7303 40.072 27.5173 40.0146 27.2148 40.0146C26.9123 40.0147 26.6993 40.0722 26.5234 40.1572C26.4326 40.2012 26.3489 40.2532 26.2646 40.3135L26.001 40.5186C25.5802 40.8598 25.0553 41.2773 24.0635 41.2773C23.3189 41.2773 22.8406 41.0421 22.4688 40.7812L22.127 40.5195C21.9349 40.367 21.7805 40.2456 21.5977 40.1572C21.4214 40.072 21.2101 40.0146 20.9111 40.0146C20.6123 40.0147 20.4009 40.072 20.2246 40.1572C20.0424 40.2454 19.8876 40.3656 19.6963 40.5176L19.6973 40.5186C19.2764 40.8598 18.7516 41.2773 17.7598 41.2773C17.0152 41.2773 16.5369 41.0421 16.165 40.7812L15.8232 40.5195C15.6312 40.3669 15.4768 40.2456 15.2939 40.1572C15.1176 40.072 14.9064 40.0146 14.6074 40.0146C14.3083 40.0147 14.0951 40.0719 13.918 40.1572C13.8264 40.2014 13.7421 40.254 13.6572 40.3145L13.3936 40.5186C12.9727 40.8598 12.4479 41.2772 11.4561 41.2773C10.7115 41.2773 10.2331 41.0421 9.86133 40.7812L9.51953 40.5195C9.32746 40.3669 9.17304 40.2456 8.99023 40.1572C8.81393 40.072 8.60273 40.0146 8.30371 40.0146C8.00474 40.0147 7.79348 40.072 7.61719 40.1572C7.4349 40.2454 7.28022 40.3656 7.08887 40.5176L7.08984 40.5186C6.66903 40.8598 6.14413 41.2772 5.15234 41.2773C4.15967 41.2773 3.64001 40.8589 3.21484 40.5195V40.5186C3.02243 40.3657 2.87004 40.2454 2.68848 40.1572C2.51344 40.0723 2.30258 40.0146 2 40.0146H1.75V38.8633H2Z" fill="#553433" stroke="#553433" stroke-width="0.5"/>
<path d="M32.8574 42.042C33.6065 42.0422 34.2118 42.6491 34.2119 43.3984V45.1826C34.2119 45.932 33.6065 46.5388 32.8574 46.5391H3.19629C2.44708 46.5389 1.84184 45.9321 1.8418 45.1826V43.3984C1.84195 42.6491 2.44715 42.0422 3.19629 42.042H32.8574ZM3.19629 43.1934C3.08156 43.1935 2.99136 43.2824 2.99121 43.3984V45.1826C2.99125 45.2987 3.08149 45.3885 3.19629 45.3887H32.8574C32.9721 45.3884 33.0615 45.2987 33.0615 45.1826V43.3984C33.0614 43.2825 32.9721 43.1936 32.8574 43.1934H3.19629Z" fill="#553433" stroke="#553433" stroke-width="0.5"/>
<path d="M33.5527 45.356C34.5229 45.3562 35.3096 46.1459 35.3096 47.1167C35.3094 49.4419 33.4236 51.3247 31.1084 51.3247H4.95801C2.63633 51.3247 0.7502 49.4354 0.75 47.1167C0.75 46.1457 1.53748 45.356 2.50781 45.356H33.5527ZM2.50781 46.5073C2.17189 46.5073 1.89941 46.7791 1.89941 47.1167C1.89961 48.8014 3.27015 50.1733 4.95801 50.1733H31.1025C32.7835 50.1732 34.1531 48.8017 34.1533 47.1167C34.1533 46.7791 33.8818 46.5074 33.5459 46.5073H2.50781Z" fill="#553433" stroke="#553433" stroke-width="0.5"/>
<path d="M46.6924 17.7227L47.3291 17.8203L47.5752 17.8584L47.5391 18.1045L42.6318 51.1113L42.6006 51.3242H35.6621V50.1729H41.6113L46.4072 17.9326L46.4443 17.6846L46.6924 17.7227Z" fill="#553433" stroke="#553433" stroke-width="0.5"/>
<path d="M46.7646 12.7266C48.1307 12.7268 49.2499 13.841 49.25 15.2158V16.1016C49.25 17.469 48.1382 18.5906 46.7646 18.5908H26.2734C24.9073 18.5907 23.7881 17.4765 23.7881 16.1016V15.2158C23.7882 13.8484 24.8999 12.7267 26.2734 12.7266H46.7646ZM26.2734 13.8838C25.5405 13.8839 24.9375 14.4822 24.9375 15.2227V16.1084C24.9377 16.8435 25.5355 17.4462 26.2734 17.4463H46.7646C47.4974 17.4461 48.0994 16.8486 48.0996 16.1084V15.2227C48.0996 14.4874 47.5027 13.884 46.7646 13.8838H26.2734Z" fill="#553433" stroke="#553433" stroke-width="0.5"/>
<path d="M45.7754 8.82446C46.2172 8.82455 46.5916 9.07829 46.8457 9.43677C47.1003 9.79603 47.25 10.2789 47.25 10.7971V11.3518C47.25 11.8742 47.1007 12.3575 46.8457 12.7161C46.591 13.0742 46.2161 13.3244 45.7754 13.3245H27.2246L27.0625 13.3127C26.6912 13.2593 26.3767 13.0259 26.1543 12.7122C25.8997 12.3529 25.75 11.87 25.75 11.3518V10.7971C25.75 10.2747 25.8993 9.79143 26.1543 9.43286C26.409 9.07474 26.7839 8.82455 27.2246 8.82446H45.7754ZM27.2246 10.2502C27.1737 10.2503 27.1002 10.2804 27.0293 10.3801C26.9592 10.4786 26.9082 10.6265 26.9082 10.7971V11.3518C26.9082 11.5445 26.9672 11.9521 27.0664 12.3137C27.1159 12.494 27.1717 12.6474 27.2266 12.7502C27.246 12.7867 27.2636 12.8096 27.2754 12.8245H45.7236C45.7355 12.8094 45.7538 12.7863 45.7734 12.7493C45.8284 12.6456 45.8841 12.4916 45.9336 12.3108C46.0329 11.9476 46.0918 11.5397 46.0918 11.3518V10.7971C46.0918 10.6211 46.0408 10.4735 45.9717 10.3772C45.9022 10.2803 45.8287 10.2503 45.7754 10.2502H27.2246Z" fill="#553433" stroke="#553433" stroke-width="0.5"/>
<path d="M26.8216 17.7141L27.4034 24.6409L26.2581 24.7375L25.6762 17.8107L26.8216 17.7141Z" fill="#553433" stroke="#553433" stroke-width="0.5"/>
<path d="M46.2461 1.01196L46.4082 1.6438L46.4707 1.88599L46.2285 1.94849L40.8994 3.30591L39.1143 9.30981L39.0439 9.5481L38.8047 9.47778L38.1807 9.29614L37.9395 9.22583L38.0117 8.98462L39.9482 2.48755L39.9883 2.35181L40.126 2.31665L45.9424 0.832275L46.1836 0.770752L46.2461 1.01196Z" fill="#553433" stroke="#553433" stroke-width="0.5"/>
</svg>
