<svg width="50" height="36" viewBox="0 0 50 36" fill="none" xmlns="http://www.w3.org/2000/svg">
<path d="M30.8486 6.96533C30.8474 6.96968 30.845 6.9737 30.8438 6.97803L30.8447 6.979C30.8199 7.04377 30.7961 7.10946 30.7734 7.17725C30.7719 7.18094 30.7711 7.18529 30.7695 7.18896L30.4707 7.07568C30.4942 7.0055 30.5188 6.93445 30.5459 6.86377L30.8486 6.96533Z" fill="#553433" stroke="#553433" stroke-width="0.32"/>
<path d="M38.4951 0.757812C43.4692 0.757812 47.5179 4.79467 47.5371 9.76465L49.2461 26.3525V26.3535L49.25 26.4268C49.25 31.4128 45.194 35.4696 40.208 35.4697H40.1045L40.1016 35.4668C36.6084 35.4258 33.4269 33.3581 31.9756 30.1729V30.1709C31.962 30.1405 31.9495 30.1082 31.9395 30.0742L31.9385 30.0732C31.9195 30.0079 31.8955 29.9431 31.8623 29.875L31.8594 29.8711C31.8471 29.8446 31.8366 29.8244 31.8223 29.7988V29.7979C31.583 29.3745 31.1318 29.1115 30.6455 29.1113H19.3027C18.8683 29.1113 18.4573 29.3224 18.2051 29.6758V29.6768C18.1827 29.7077 18.1611 29.7396 18.1416 29.7725L18.0879 29.874C18.0611 29.929 18.0382 29.9852 18.0195 30.042L17.9756 30.2148C17.9636 30.2817 17.9427 30.3465 17.9131 30.4072H17.9121C16.3799 33.5286 13.2674 35.4697 9.79199 35.4697C4.80597 35.4696 0.75 31.4128 0.75 26.4268C0.750008 26.4009 0.751677 26.3763 0.753906 26.3535V26.3525L0.928711 24.6543H0.929688C0.929793 24.6531 0.929564 24.6517 0.929688 24.6504C0.930148 24.6455 0.930964 24.6369 0.932617 24.627L2.46289 9.75C2.49021 4.78689 6.53445 0.757812 11.5039 0.757812C15.1418 0.757844 18.4503 2.97398 19.8467 6.30859L19.9756 6.63477V6.63672L19.9951 6.69531L20.0479 6.8457L20.0488 6.84668L20.0576 6.86719L20.1338 7.00586C20.3344 7.31451 20.681 7.50684 21.0557 7.50684H28.9414C29.3718 7.50684 29.766 7.25207 29.9434 6.85938C29.9457 6.85418 29.948 6.84915 29.9502 6.84473C29.97 6.79692 29.9842 6.75752 29.9941 6.72266L29.9951 6.72168L30.0107 6.67285L30.0117 6.66895L30.1396 6.34082C31.5289 2.9867 34.8423 0.757983 38.4951 0.757812ZM38.4951 2.21582C35.3385 2.21586 32.4825 4.20162 31.3848 7.1582L31.3838 7.15723C31.3617 7.22973 31.3359 7.30214 31.3057 7.37695L31.3066 7.37793L31.3018 7.39258C31.2865 7.4379 31.2655 7.48128 31.2412 7.52344L31.2422 7.52441C30.8164 8.40207 29.9207 8.96484 28.9414 8.96484H21.0557C20.0647 8.96484 19.1597 8.38788 18.7402 7.49219V7.49121C18.7274 7.46604 18.7152 7.44026 18.7051 7.41309V7.41211C18.6656 7.32135 18.632 7.22755 18.6025 7.12793L18.4941 6.85547C17.3193 4.06892 14.5484 2.21683 11.5039 2.2168C7.32206 2.2168 3.91909 5.61897 3.91895 9.80078C3.91895 9.82692 3.91818 9.85153 3.91602 9.87402L3.91504 9.87598L2.38184 24.7812L2.38086 24.7803C2.37969 24.7948 2.3791 24.8054 2.37891 24.8066L2.20801 26.457C2.22402 30.6252 5.62012 34.0116 9.79199 34.0117C12.6796 34.0117 15.2655 32.4179 16.5645 29.8438C16.5989 29.6903 16.6457 29.5394 16.7061 29.3936L16.7764 29.2373C16.8106 29.1664 16.849 29.0967 16.8896 29.0283L17.0205 28.8271C17.5453 28.093 18.3986 27.6544 19.3027 27.6543H30.6455C31.6587 27.6543 32.5967 28.2028 33.0938 29.0859L33.1758 29.2471H33.1768C33.2305 29.3577 33.2769 29.4768 33.3154 29.5967L33.4355 29.8457C34.7203 32.3861 37.3455 34.0116 40.207 34.0117C44.3769 34.0117 47.7715 30.6281 47.791 26.4629L46.084 9.875L46.083 9.87305C46.0809 9.85078 46.0801 9.82666 46.0801 9.80078C46.0801 5.61885 42.677 2.21582 38.4951 2.21582Z" fill="#553433" stroke="#553433" stroke-width="0.5"/>
<path d="M32.6611 29.4863L32.7334 29.6523C32.7554 29.7088 32.7758 29.7668 32.793 29.8262L32.8525 30.0303H32.5361L32.4932 29.9375C32.445 29.8332 32.4001 29.7277 32.3574 29.6201L32.3076 29.498L32.5967 29.3633C32.6188 29.4023 32.6408 29.443 32.6611 29.4863Z" fill="#553433" stroke="#553433" stroke-width="0.32"/>
<path d="M48.501 24.6824C48.6191 25.2456 48.6806 25.8286 48.6807 26.4265L48.3623 26.4431L48.1855 24.7322L48.501 24.6824Z" fill="#553433" stroke="#553433" stroke-width="0.32"/>
<path d="M19.5371 7.09863L19.2402 7.2168C19.1979 7.12464 19.1644 7.02905 19.1377 6.93164L19.4414 6.83203C19.476 6.92094 19.5073 7.01026 19.5371 7.09863Z" fill="#553433" stroke="#553433" stroke-width="0.32"/>
<path d="M1.81543 24.7349L1.63867 26.4429L1.31934 26.4263C1.31936 25.8303 1.38088 25.2464 1.49902 24.6851L1.81543 24.7349Z" fill="#553433" stroke="#553433" stroke-width="0.32"/>
<path d="M17.7637 29.3054C17.7263 29.4108 17.6864 29.5145 17.6445 29.6169C17.6074 29.7088 17.5687 29.7996 17.5283 29.8894L17.4023 30.156L17.1016 30.0574L17.1338 29.908C17.1587 29.8097 17.19 29.7141 17.2275 29.6218L17.2881 29.4861C17.3437 29.3704 17.4092 29.2611 17.4834 29.158L17.7637 29.3054Z" fill="#553433" stroke="#553433" stroke-width="0.32"/>
<path d="M19.5371 7.09863L19.2402 7.2168C19.1979 7.12464 19.1644 7.02905 19.1377 6.93164L19.4414 6.83203C19.476 6.92094 19.5073 7.01026 19.5371 7.09863Z" fill="#553433" stroke="#553433" stroke-width="0.32"/>
<path d="M30.8486 6.96533C30.8474 6.96968 30.845 6.9737 30.8438 6.97803L30.8447 6.979C30.8199 7.04377 30.7961 7.10946 30.7734 7.17725C30.7719 7.18094 30.7711 7.18529 30.7695 7.18896L30.4707 7.07568C30.4942 7.0055 30.5188 6.93445 30.5459 6.86377L30.8486 6.96533Z" fill="#553433" stroke="#553433" stroke-width="0.32"/>
<path d="M17.7637 29.3054C17.7263 29.4108 17.6864 29.5145 17.6445 29.6169C17.6074 29.7088 17.5687 29.7996 17.5283 29.8894L17.4023 30.156L17.1016 30.0574L17.1338 29.908C17.1587 29.8097 17.19 29.7141 17.2275 29.6218L17.2881 29.4861C17.3437 29.3704 17.4092 29.2611 17.4834 29.158L17.7637 29.3054Z" fill="#553433" stroke="#553433" stroke-width="0.32"/>
<path d="M32.6611 29.4863L32.7334 29.6523C32.7554 29.7088 32.7758 29.7668 32.793 29.8262L32.8525 30.0303H32.5361L32.4932 29.9375C32.445 29.8332 32.4001 29.7277 32.3574 29.6201L32.3076 29.498L32.5967 29.3633C32.6188 29.4023 32.6408 29.443 32.6611 29.4863Z" fill="#553433" stroke="#553433" stroke-width="0.32"/>
<path d="M17.7637 29.3054C17.7263 29.4108 17.6854 29.5145 17.6436 29.6169L17.6035 29.7166H17.1768L17.2871 29.4871C17.3429 29.3711 17.4081 29.2613 17.4824 29.158L17.7637 29.3054Z" fill="#553433" stroke="#553433" stroke-width="0.32"/>
<path d="M32.6621 29.4883L32.7686 29.7168H32.3984L32.3574 29.6201C32.3403 29.5805 32.3229 29.5392 32.3076 29.498L32.5039 29.4072V29.3965H32.5176V29.4004L32.5967 29.3633C32.6192 29.4029 32.6415 29.4442 32.6621 29.4883Z" fill="#553433" stroke="#553433" stroke-width="0.32"/>
<path d="M13.3018 14.4504C15.3216 14.4505 16.9648 16.0936 16.9648 18.1135C16.9648 20.1334 15.3216 21.7765 13.3018 21.7766C11.2819 21.7766 9.63875 20.1334 9.63867 18.1135C9.63867 16.0936 11.2818 14.4504 13.3018 14.4504ZM13.3018 15.9084C12.086 15.9084 11.0967 16.8978 11.0967 18.1135C11.0968 19.3292 12.0861 20.3186 13.3018 20.3186C14.5174 20.3185 15.5068 19.3291 15.5068 18.1135C15.5068 16.8979 14.5174 15.9085 13.3018 15.9084Z" fill="#553433" stroke="#553433" stroke-width="0.5"/>
<path d="M13.3027 11.3003C17.0597 11.3005 20.1152 14.3568 20.1152 18.1138C20.115 21.8706 17.0596 24.9261 13.3027 24.9263C9.54606 24.9263 6.48946 21.8707 6.48926 18.1138C6.48926 14.3566 9.54561 11.3003 13.3027 11.3003ZM13.3027 12.7583C10.3498 12.7583 7.94727 15.1609 7.94727 18.1138C7.94746 21.0665 10.35 23.4692 13.3027 23.4692C16.2553 23.469 18.658 21.0661 18.6582 18.1138C18.6582 15.1613 16.2551 12.7585 13.3027 12.7583Z" fill="#553433" stroke="#553433" stroke-width="0.5"/>
<path d="M37.8662 11.6064C39.1482 11.6066 40.1913 12.6492 40.1914 13.9316C40.1914 14.4096 40.5806 14.7997 41.0586 14.7998C42.342 14.7998 43.3848 15.8423 43.3848 17.125V19.1006C43.3846 20.3827 42.3421 21.4258 41.0596 21.4258C40.5803 21.4259 40.1915 21.8152 40.1914 22.293C40.1914 23.576 39.1487 24.6189 37.8662 24.6191H35.8906C34.6084 24.6191 33.5654 23.5762 33.5654 22.2939C33.5653 21.8149 33.1751 21.4258 32.6973 21.4258C31.4143 21.4257 30.3713 20.3831 30.3711 19.1006V17.125C30.3711 15.8428 31.4137 14.7999 32.6963 14.7998C33.1754 14.7998 33.5654 14.4095 33.5654 13.9316C33.5655 12.6495 34.6081 11.6064 35.8906 11.6064H37.8662ZM35.8906 13.0645C35.4127 13.0645 35.0227 13.4538 35.0225 13.9316C35.0225 15.2139 33.9799 16.2578 32.6973 16.2578C32.2182 16.2579 31.8291 16.6471 31.8291 17.125V19.1006C31.8291 19.5786 32.2183 19.9677 32.6963 19.9678C33.9794 19.9678 35.0225 21.0113 35.0225 22.2939C35.0227 22.7731 35.4128 23.1621 35.8906 23.1621H37.8662C38.3441 23.1619 38.7334 22.7719 38.7334 22.2939C38.7337 21.0111 39.7761 19.9679 41.0586 19.9678C41.538 19.9678 41.9277 19.5785 41.9277 19.1006V17.125C41.9277 16.647 41.5376 16.2578 41.0596 16.2578C39.7762 16.2577 38.7334 15.2143 38.7334 13.9316C38.7332 13.4539 38.3439 13.0647 37.8662 13.0645H35.8906Z" fill="#553433" stroke="#553433" stroke-width="0.5"/>
<path d="M25.001 1.23657C25.4031 1.23683 25.7294 1.56288 25.7295 1.96509V7.7561C25.7295 8.15839 25.4032 8.48534 25.001 8.4856H25C24.5976 8.4855 24.2715 8.15849 24.2715 7.7561V1.96509C24.2716 1.56278 24.5977 1.23667 25 1.23657H25.001Z" fill="#553433" stroke="#553433" stroke-width="0.5"/>
</svg>
