<svg width="50" height="46" viewBox="0 0 50 46" fill="none" xmlns="http://www.w3.org/2000/svg">
<path d="M24.709 0.824463C25.3169 0.824512 25.8949 1.04058 26.334 1.4397L48.9482 22.0032L49.0479 22.1086C49.2579 22.3671 49.3128 22.7131 49.1729 23.0247C49.0148 23.376 48.6474 23.5911 48.2568 23.5911H43.5996V43.1184C43.5996 44.3566 42.4993 45.3244 41.1982 45.3245H7.36133C6.0919 45.3243 5.01759 44.3797 5.01758 43.1702V23.2756H1.7666C1.37125 23.2756 0.998298 23.0623 0.833008 22.7063C0.665057 22.3444 0.758128 21.9301 1.05566 21.6594L23.083 1.44653V1.44556L23.2539 1.30493C23.6661 0.995444 24.1752 0.824463 24.709 0.824463ZM24.7148 1.89771C24.3901 1.89776 24.0907 2.01377 23.8672 2.21704L2.08887 22.2083H6.14844V43.176C6.14852 43.7502 6.66924 44.257 7.36133 44.2571H41.1982C41.922 44.257 42.4687 43.7272 42.4688 43.1243V22.5237H47.8818L25.5557 2.21118V2.21021C25.3337 2.00881 25.035 1.89771 24.7148 1.89771Z" fill="#553433" stroke="#553433" stroke-width="0.5"/>
<path d="M11.3877 21.8245C12.0378 21.8245 12.6152 22.2381 12.8281 22.8401L12.8662 22.9622V22.9641L16.2598 36.2922L16.3047 36.4202C16.4325 36.7074 16.7197 36.8986 17.0459 36.8987H32.4414V38.0237H17.0459C16.2133 38.0236 15.4791 37.5013 15.2109 36.7297L15.1641 36.5715L11.7705 23.2473L11.748 23.1838C11.6842 23.0432 11.5456 22.9504 11.3877 22.9504H9.75V21.8245H11.3877Z" fill="#553433" stroke="#553433" stroke-width="0.5"/>
<path d="M35.1094 24.2161C35.5221 24.2161 35.8976 24.422 36.1201 24.761C36.3441 25.1024 36.3749 25.5368 36.208 25.9075V25.9084L32.5869 33.8967L32.5879 33.8977C32.2754 34.597 31.5722 35.0403 30.8076 35.0403H30.5576V35.0344H19.6104C18.7563 35.0343 18.0212 34.4906 17.7656 33.6946L17.7207 33.5325L15.9609 25.8489C15.8678 25.4482 15.9622 25.0378 16.2256 24.7151C16.488 24.3935 16.8679 24.2162 17.2764 24.2161H35.1094ZM17.373 25.3352H17.2705C17.1993 25.3352 17.1407 25.3653 17.1016 25.4153C17.0588 25.4698 17.0452 25.5305 17.0596 25.593L18.8203 33.2766V33.2786L18.8613 33.4104C18.9832 33.7041 19.2746 33.9024 19.6104 33.9026H30.8076C31.1317 33.9026 31.4214 33.7161 31.5576 33.4231L35.1768 25.4348C35.1882 25.4088 35.186 25.3879 35.1738 25.3694C35.152 25.3368 35.1307 25.3293 35.1094 25.3293H17.3789L17.373 25.3352Z" fill="#553433" stroke="#553433" stroke-width="0.5"/>
<path d="M18.4531 38.6943C19.6742 38.6944 20.665 39.6744 20.665 40.8906C20.6649 42.1077 19.6731 43.08 18.4531 43.0801C17.2394 43.0801 16.2414 42.1015 16.2412 40.8906C16.2412 39.6812 17.2314 38.6943 18.4531 38.6943ZM18.4531 39.8203C17.8568 39.8203 17.3721 40.2993 17.3721 40.8906C17.3722 41.4811 17.8498 41.9541 18.4531 41.9541C19.0556 41.954 19.534 41.4756 19.5342 40.8906C19.5342 40.304 19.0542 39.8204 18.4531 39.8203Z" fill="#553433" stroke="#553433" stroke-width="0.5"/>
<path d="M29.4229 38.6943C30.645 38.6944 31.6279 39.6755 31.6279 40.8906C31.6278 42.1072 30.637 43.08 29.4229 43.0801C28.2091 43.0801 27.2111 42.1015 27.2109 40.8906C27.2109 39.6812 28.2012 38.6943 29.4229 38.6943ZM29.4229 39.8203C28.8265 39.8203 28.3418 40.2993 28.3418 40.8906C28.3419 41.4811 28.8195 41.9541 29.4229 41.9541C30.0238 41.954 30.4969 41.4771 30.4971 40.8906C30.4971 40.3032 30.0168 39.8204 29.4229 39.8203Z" fill="#553433" stroke="#553433" stroke-width="0.5"/>
</svg>
