<svg width="50" height="40" viewBox="0 0 50 40" fill="none" xmlns="http://www.w3.org/2000/svg">
<path d="M45.7764 6.65063C47.6931 6.65063 49.2499 8.21934 49.25 10.1448V35.8293C49.25 37.7549 47.6935 39.3235 45.7764 39.3235H4.22363C2.30684 39.3235 0.750028 37.7549 0.75 35.8293V10.1448C0.750144 8.21936 2.30658 6.65063 4.22363 6.65063H45.7764ZM4.22363 8.12231C3.1187 8.12231 2.21596 9.02822 2.21582 10.1448V35.8293C2.21585 36.9457 3.11866 37.8518 4.22363 37.8518H45.7764C46.8814 37.8518 47.7842 36.946 47.7842 35.8293V10.1448C47.784 9.02851 46.8813 8.12231 45.7764 8.12231H4.22363Z" fill="#553433" stroke="#553433" stroke-width="0.5"/>
<path d="M27.8135 18.0281C28.424 18.0282 28.9169 18.5274 28.917 19.1375V22.615C28.9168 23.2254 28.4234 23.7242 27.8135 23.7244H22.1875C21.5771 23.7242 21.0842 23.225 21.084 22.615V19.1375C21.084 18.5269 21.5775 18.0282 22.1875 18.0281H27.8135ZM22.5498 22.2517H27.4512V19.4998H22.5498V22.2517Z" fill="#553433" stroke="#553433" stroke-width="0.5"/>
<path d="M13.4818 19.1053L2.27441 7.82349" stroke="#553433" stroke-width="0.3"/>
<path d="M2.15452 7.59444C2.44202 7.35826 2.86587 7.37522 3.13389 7.64502L13.6585 18.2396C13.9263 18.5094 13.9433 18.9361 13.7088 19.2254L13.6585 19.2816C13.3728 19.5692 12.9093 19.5691 12.6234 19.2816L2.09877 8.68701C1.81294 8.39927 1.81294 7.93276 2.09877 7.64502L2.15452 7.59444Z" fill="#553433" stroke="#553433" stroke-width="0.5"/>
<path d="M36.5596 18.0281C36.9658 18.0281 37.293 18.3595 37.293 18.7644L37.2783 18.9119C37.2104 19.2467 36.9152 19.5007 36.5596 19.5007H13.2646C12.8586 19.5005 12.5322 19.1692 12.5322 18.7644L12.5469 18.616C12.615 18.2815 12.9094 18.0282 13.2646 18.0281H36.5596Z" fill="#553433" stroke="#553433" stroke-width="0.5"/>
<path d="M36.46 19.1043L47.667 7.82251" stroke="#553433" stroke-width="0.3"/>
<path d="M46.808 7.64447L46.8637 7.59389C47.1512 7.35814 47.5752 7.37482 47.8431 7.64447L47.8933 7.70058C48.1279 7.9899 48.1109 8.41663 47.8431 8.68646L37.3185 19.281C37.0326 19.5687 36.5692 19.5687 36.2833 19.281L36.2331 19.2249C35.9987 18.9355 36.0154 18.5087 36.2833 18.239L46.808 7.64447Z" fill="#553433" stroke="#553433" stroke-width="0.5"/>
<path d="M34.2764 0.245605C36.4321 0.245605 38.2451 1.75942 38.2451 3.70166V7.06787C38.2451 7.47555 37.8748 7.74561 37.499 7.74561H12.4912C12.1154 7.74561 11.7451 7.47555 11.7451 7.06787V3.70166L11.75 3.521C11.8583 1.66634 13.6254 0.245605 15.7139 0.245605H34.2764ZM15.7139 1.46729C14.2242 1.46729 13.0821 2.50099 13.082 3.70166V6.52393H36.9082V3.70166C36.9082 2.50099 35.766 1.46729 34.2764 1.46729H15.7139Z" fill="#553433" stroke="#553433" stroke-width="0.5"/>
<path d="M31.4131 3.24561C32.4481 3.24562 33.3956 3.54413 34.0908 4.03955C34.7854 4.53465 35.2449 5.24155 35.2451 6.04834V7.15479C35.2451 7.35072 35.1329 7.50436 35 7.59912C34.8666 7.69421 34.6954 7.74559 34.5176 7.74561H15.4727C15.2948 7.74559 15.1237 7.69421 14.9902 7.59912C14.8573 7.50436 14.7451 7.35072 14.7451 7.15479V6.04834L14.75 5.89893C14.8029 5.15442 15.248 4.50385 15.8994 4.03955C16.5946 3.54413 17.5422 3.24562 18.5771 3.24561H31.4131ZM18.5771 4.31982C17.8568 4.31984 17.2151 4.52864 16.7598 4.85303C16.3041 5.17784 16.051 5.60403 16.0508 6.04834V6.67139H33.9395V6.04834C33.9393 5.60403 33.6862 5.17784 33.2305 4.85303C32.7752 4.52864 32.1335 4.31984 31.4131 4.31982H18.5771Z" fill="#553433" stroke="#553433" stroke-width="0.5"/>
</svg>
