<svg width="47" height="47" viewBox="0 0 47 47" fill="none" xmlns="http://www.w3.org/2000/svg">
<path d="M23.6641 0.824463C25.3299 0.824463 26.6998 2.11686 27.0645 3.80493L27.1064 4.02661C27.1422 4.24994 27.1601 4.4796 27.1602 4.71313C27.1602 4.94899 27.1412 5.17984 27.1055 5.40356V5.40454C26.8144 7.19923 25.4015 8.60083 23.6641 8.60083C21.9268 8.60074 20.5128 7.19939 20.2227 5.40454L20.2236 5.40356C20.1869 5.17946 20.167 4.94902 20.167 4.71313C20.167 4.40111 20.201 4.09681 20.2627 3.80591V3.80493L20.3428 3.49341C20.7999 1.96038 22.1024 0.824543 23.6641 0.824463ZM23.6641 2.34595C22.7714 2.34617 21.9869 2.99285 21.6973 3.93188L21.6963 3.93286C21.6199 4.17726 21.5781 4.44053 21.5781 4.71411C21.5782 4.91947 21.6015 5.11947 21.6455 5.30884H21.6465L21.6973 5.50024C21.9878 6.43519 22.7738 7.0801 23.6641 7.08032C24.6138 7.08032 25.444 6.34579 25.6816 5.30884H25.6826L25.7109 5.16431C25.736 5.01879 25.75 4.86831 25.75 4.71411C25.75 4.44002 25.709 4.17676 25.6328 3.93286L25.6318 3.93188C25.3422 2.99268 24.5569 2.34595 23.6641 2.34595Z" fill="#553333" stroke="#553433" stroke-width="0.5"/>
<path d="M23.6641 7.1521C24.214 7.1521 24.5858 7.6699 24.5859 8.20874V37.571C24.5859 38.11 24.2141 38.6287 23.6641 38.6287C23.114 38.6286 22.7422 38.11 22.7422 37.571V8.20874C22.7423 7.66993 23.1142 7.15216 23.6641 7.1521Z" fill="#553333" stroke="#553433" stroke-width="0.5"/>
<path d="M20.8164 3.60767L20.752 3.90942C20.6972 4.16757 20.667 4.43728 20.667 4.71313L20.6797 5.02271C20.688 5.12467 20.7005 5.22532 20.7168 5.32446L20.7646 5.6145H10.4053C9.85952 5.61447 9.43561 5.15422 9.43555 4.61157C9.43555 4.3375 9.54205 4.0884 9.71387 3.90649L9.71582 3.90454L9.78418 3.84009C9.95117 3.69672 10.1671 3.60768 10.4053 3.60767H20.8164Z" fill="#553333" stroke="#553433" stroke-width="0.5"/>
<path d="M36.6055 3.60815C37.1523 3.60822 37.5762 4.06924 37.5762 4.61206C37.5759 5.15467 37.1521 5.61492 36.6055 5.61499H26.5654L26.6113 5.32593C26.6431 5.12721 26.6602 4.92229 26.6602 4.71362C26.6602 4.50644 26.6439 4.30328 26.6123 4.1062L26.5762 3.91089L26.5107 3.60815H36.6055Z" fill="#553333" stroke="#553433" stroke-width="0.5"/>
<path d="M29.2598 37.6223C32.7334 37.6225 35.5117 40.7799 35.5117 44.5999C35.5116 45.5235 34.8359 46.3243 33.9463 46.3245H13.0645C12.1747 46.3245 11.4982 45.5236 11.498 44.5999C11.498 40.7802 14.2769 37.6223 17.751 37.6223H29.2598ZM17.751 39.135C15.1035 39.135 12.9023 41.5594 12.9023 44.5999C12.9025 44.7442 13.0015 44.8118 13.0645 44.8118H33.9463C34.0094 44.8115 34.1082 44.7441 34.1084 44.5999C34.1084 41.5595 31.9071 39.1352 29.2598 39.135H17.751Z" fill="#553333" stroke="#553433" stroke-width="0.5"/>
<path d="M36.9502 3.95679C37.2143 3.95679 37.4431 4.11325 37.5625 4.34155L46.1602 20.822L46.1992 20.9099C46.2777 21.1197 46.266 21.3586 46.1631 21.5593C46.0595 21.7615 45.8703 21.9084 45.6465 21.9421L45.5479 21.95H28.3525C28.0865 21.95 27.8568 21.7903 27.7383 21.5593C27.6205 21.3296 27.6214 21.0503 27.7402 20.822L36.3379 4.34155L36.3877 4.25952C36.515 4.0763 36.7194 3.95682 36.9502 3.95679ZM29.5527 20.4363H44.3477L36.9502 6.25757L29.5527 20.4363Z" fill="#553433" stroke="#553433" stroke-width="0.5"/>
<path d="M45.5479 20.5869C45.8628 20.587 46.0994 20.8688 46.0996 21.1924C46.0996 22.4333 45.1855 23.5438 43.5723 24.3594L43.2402 24.5186C41.5476 25.2885 39.3137 25.7089 36.9502 25.709V25.71H36.9492V25.709C34.7331 25.7089 32.631 25.3391 30.9824 24.6582L30.6592 24.5186C28.8402 23.6912 27.8008 22.5159 27.8008 21.1924C27.801 20.8688 28.0376 20.5869 28.3525 20.5869H45.5479ZM29.0693 21.7988C29.2279 22.0968 29.499 22.3987 29.8779 22.6875C30.3149 23.0205 30.8893 23.333 31.5811 23.6016C32.9644 24.1387 34.8104 24.4971 36.9502 24.4971C39.0901 24.4971 40.936 24.1387 42.3193 23.6016C43.0111 23.333 43.5855 23.0205 44.0225 22.6875C44.4014 22.3987 44.6725 22.0968 44.8311 21.7988H29.0693Z" fill="#553433" stroke="#553433" stroke-width="0.2"/>
<path d="M10.0498 3.95679C10.3139 3.95679 10.5427 4.11325 10.6621 4.34155L19.2598 20.822L19.2988 20.9099C19.3773 21.1197 19.3656 21.3586 19.2627 21.5593C19.1591 21.7615 18.9699 21.9084 18.7461 21.9421L18.6475 21.95H1.45215C1.18609 21.95 0.956413 21.7903 0.837891 21.5593C0.720157 21.3296 0.721036 21.0503 0.839844 20.822L9.43848 4.34155L9.4873 4.25952C9.61458 4.0763 9.81898 3.95682 10.0498 3.95679ZM2.65234 20.4363H17.4473L10.0498 6.25757L2.65234 20.4363Z" fill="#553433" stroke="#553433" stroke-width="0.5"/>
<path d="M18.6475 20.4365C19.0608 20.4366 19.3494 20.8025 19.3496 21.1924C19.3496 22.5163 18.3749 23.6656 16.7383 24.4932L16.4023 24.6543C14.7927 25.3866 12.7089 25.805 10.4941 25.8545L10.0498 25.8604C7.81866 25.8604 5.69565 25.4872 4.02441 24.7969L3.69629 24.6543C1.85806 23.818 0.75 22.6045 0.75 21.1924C0.750218 20.8024 1.03872 20.4365 1.45215 20.4365H18.6475ZM2.44043 21.9492C2.58988 22.1534 2.79825 22.3625 3.06836 22.5684C3.49156 22.8909 4.05251 23.1971 4.73438 23.4619C6.09806 23.9914 7.92562 24.3467 10.0498 24.3467C12.174 24.3467 14.0016 23.9914 15.3652 23.4619C16.047 23.1972 16.6081 22.8909 17.0312 22.5684C17.3013 22.3625 17.5097 22.1534 17.6592 21.9492H2.44043Z" fill="#553433" stroke="#553433" stroke-width="0.5"/>
</svg>
