<svg width="48" height="49" viewBox="0 0 48 49" fill="none" xmlns="http://www.w3.org/2000/svg">
<path d="M15.5537 38.4001C18.6252 38.3285 21.3153 40.1497 21.665 42.7078L21.6924 42.9656L21.7031 43.2175C21.7186 44.4745 21.1647 45.6812 20.1289 46.6199C19.051 47.6103 17.5739 48.2063 15.9805 48.3093L15.9756 48.3103C15.8164 48.3174 15.6504 48.324 15.4912 48.324C12.399 48.324 9.7307 46.3994 9.53418 43.7585V43.7576C9.4425 42.4949 9.92619 41.268 10.8975 40.2947L11.0977 40.1033C12.1755 39.1129 13.6528 38.5169 15.2461 38.4138L15.5537 38.4001ZM15.7432 39.6121C15.6032 39.6121 15.471 39.6121 15.3486 39.6248L15.3389 39.6257C14.1041 39.703 12.9814 40.1358 12.1416 40.8357L11.9775 40.9792C11.1391 41.7481 10.7346 42.7034 10.8047 43.6716L10.8242 43.8582C11.0905 45.7772 13.2628 47.2719 15.9023 47.0974H15.9033L16.1484 47.0779C17.3676 46.9537 18.4632 46.4791 19.2646 45.7439L19.417 45.5974C20.1516 44.8556 20.503 43.9598 20.4375 43.0525L20.4189 42.8738C20.171 41.0475 18.2003 39.6121 15.7432 39.6121Z" fill="#553433" stroke="#553433" stroke-width="0.5"/>
<path d="M4.01074 20.4695C6.88017 18.9216 10.4501 19.5156 11.9297 21.9128H11.9287C12.6523 23.0812 12.7619 24.4811 12.2402 25.8386L12.2412 25.8396C11.7674 27.0958 10.8106 28.1776 9.54688 28.9216L9.29004 29.0662C8.2176 29.6401 7.05709 29.9203 5.94824 29.9216V29.9226H5.94043V29.9216C4.18519 29.9196 2.52678 29.2262 1.56348 27.9031L1.38086 27.6296C-0.10861 25.2238 1.13825 22.0191 4.01074 20.4695ZM7.35742 20.8259C6.45992 20.8266 5.50904 21.051 4.63086 21.5291L4.62988 21.53C2.28656 22.7926 1.38802 25.2645 2.46289 27.0105L2.57031 27.1716C3.69102 28.7501 6.22774 29.2074 8.4502 28.1257L8.67188 28.0125C9.81081 27.3951 10.6509 26.4761 11.0469 25.4285V25.4275L11.1143 25.2361C11.4024 24.3388 11.3314 23.4475 10.9238 22.6921L10.832 22.532C10.1557 21.4407 8.8359 20.8269 7.35742 20.8259Z" fill="#553433" stroke="#553433" stroke-width="0.5"/>
<path d="M40.2363 32.6248C43.434 32.4193 46.2939 34.2756 46.6553 36.9187L46.6826 37.1765L46.6934 37.4285C46.7089 38.6854 46.155 39.8921 45.1191 40.8308C44.0414 41.8211 42.5649 42.4171 40.9717 42.5203L40.9658 42.5212C40.8066 42.5283 40.6407 42.5349 40.4814 42.5349C37.3892 42.5349 34.7209 40.6103 34.5244 37.9695V37.9685C34.32 35.1945 36.9341 32.837 40.2363 32.6248ZM40.3389 33.8357L40.3301 33.8367C37.6969 34.0112 35.7656 35.7633 35.7871 37.7009L35.7949 37.8884V37.8894L35.8145 38.0769C36.0811 39.9956 38.2534 41.4905 40.8926 41.3162H40.8936L41.1387 41.2957C42.3578 41.1715 43.4534 40.6978 44.2549 39.9626L44.4072 39.8162C45.0933 39.1235 45.4443 38.2962 45.4346 37.4509L45.4277 37.2703C45.288 35.3601 43.2699 33.8298 40.7334 33.8298H40.4834V33.8269C40.434 33.8288 40.3856 33.8308 40.3389 33.8357Z" fill="#553433" stroke="#553433" stroke-width="0.5"/>
<path d="M45.1934 10.3396C45.671 10.2696 46.1532 10.3795 46.5488 10.6619C47.003 10.986 47.259 11.4828 47.25 12.0242V12.0261L46.6914 37.2214L46.6865 37.4705L46.4375 37.4666L45.6729 37.4519L45.4229 37.447L45.4277 37.196L45.9854 12.0056L45.9736 11.8953C45.9496 11.7891 45.8899 11.698 45.7969 11.6345C45.6526 11.5362 45.4835 11.5056 45.333 11.5476L45.3291 11.5486L22.332 17.6023V17.6013C21.9496 17.7034 21.7081 18.0189 21.708 18.3582V43.1072L21.6289 43.1814L21.6211 43.1882L21.5488 43.2556H20.4365V18.366C20.4365 17.4576 21.0889 16.6746 21.9893 16.4343H21.9902L44.9873 10.3806H44.9893L45.1934 10.3396Z" fill="#553433" stroke="#553433" stroke-width="0.5"/>
<path d="M46.6242 13.4397L46.9838 14.6021L21.0072 21.5987L20.6476 20.4363L46.6242 13.4397Z" fill="#553433" stroke="#553433" stroke-width="0.5"/>
<path d="M11.793 0.885986C12.0821 0.772941 12.3921 0.821796 12.6318 0.984619L12.7305 1.06079L12.7354 1.06567L13.0928 1.4104C14.0151 2.31601 15.5087 3.90765 16.625 5.70337C17.8874 7.73412 18.7353 10.1375 17.5293 12.094L17.5283 12.0959C17.3492 12.3823 16.9656 12.4715 16.6768 12.3098V12.3108L16.6758 12.3098L16.6729 12.3088V12.3079C16.375 12.1427 16.2598 11.7738 16.4473 11.4739C16.8778 10.7724 16.9379 9.9481 16.7422 9.05786C16.5457 8.16414 16.0945 7.22219 15.5283 6.31665C14.5807 4.80128 13.3349 3.42249 12.5156 2.58521V24.7678C12.5156 25.1215 12.2192 25.3743 11.8838 25.3743H11.876C11.5406 25.3742 11.2442 25.1215 11.2441 24.7678V1.6604C11.2443 1.30409 11.4712 1.01191 11.793 0.885986Z" fill="#553433" stroke="#553433" stroke-width="0.5"/>
</svg>
