<svg width="50" height="50" viewBox="0 0 50 50" fill="none" xmlns="http://www.w3.org/2000/svg">
<path d="M14.6201 18.759C14.9424 18.759 15.2373 18.9987 15.2373 19.345V48.7385C15.2373 49.0848 14.9424 49.3245 14.6201 49.3245C14.2979 49.3243 14.0039 49.0847 14.0039 48.7385V19.345C14.0039 18.9988 14.2979 18.7592 14.6201 18.759Z" fill="#553433" stroke="#553433" stroke-width="0.5"/>
<path d="M14.6201 9.12671C15.9763 9.12671 17.1954 10.0892 18.2451 11.491C19.3025 12.9029 20.2326 14.8196 21.0029 16.8562C22.542 20.9253 23.4687 25.5473 23.4688 27.741C23.4688 32.204 19.4809 35.8699 14.6201 35.8699C9.76025 35.8699 5.77148 32.2451 5.77148 27.741C5.77152 25.5272 6.69811 20.9048 8.2373 16.8406C9.00764 14.8065 9.93778 12.8939 10.9951 11.4851C12.045 10.0863 13.2643 9.12672 14.6201 9.12671ZM14.6201 10.2986C14.1726 10.2986 13.7124 10.4812 13.2422 10.8396C12.7714 11.1984 12.303 11.7242 11.8457 12.3816C10.9312 13.6964 10.0867 15.5028 9.36621 17.45C7.92316 21.3499 7.00493 25.7412 7.00488 27.741C7.00488 31.6643 10.4022 34.699 14.6201 34.699C18.8354 34.699 22.2354 31.5526 22.2354 27.741C22.2353 25.7986 21.3173 21.4076 19.874 17.4929C19.1534 15.5384 18.3083 13.7211 17.3936 12.3972C16.9362 11.7354 16.4679 11.2061 15.9971 10.8445C15.5267 10.4833 15.067 10.2986 14.6201 10.2986Z" fill="#553433" stroke="#553433" stroke-width="0.5"/>
<path d="M10.0557 21.0283C10.2922 20.8608 10.6074 20.8837 10.8203 21.0557L10.9043 21.1387L10.9072 21.1406L14.8945 25.9971H14.8936C15.121 26.2689 15.0386 26.6404 14.7725 26.8291L14.7734 26.8301C14.6578 26.9125 14.5237 26.9434 14.4082 26.9434C14.2295 26.9434 14.0478 26.8673 13.9238 26.7197L13.9219 26.7178L9.93359 21.8613L9.93555 21.8604C9.70844 21.5885 9.7896 21.2169 10.0557 21.0283Z" fill="#553433" stroke="#553433" stroke-width="0.5"/>
<path d="M18.5293 26.1716C18.7545 25.9329 19.1346 25.9175 19.3848 26.114C19.6549 26.3262 19.6805 26.7106 19.4492 26.9578L19.4482 26.9607L15.2764 31.3201L15.2734 31.323C15.1508 31.4466 14.9831 31.5105 14.8174 31.5105C14.6745 31.5105 14.5423 31.4656 14.4277 31.3816L14.4209 31.3767C14.1511 31.1645 14.1254 30.7801 14.3564 30.533L14.3584 30.531L18.5293 26.1716Z" fill="#553433" stroke="#553433" stroke-width="0.5"/>
<path d="M35.3721 18.759C35.6944 18.759 35.9893 18.9987 35.9893 19.345V48.7385C35.9893 49.0848 35.6944 49.3245 35.3721 49.3245C35.0499 49.3243 34.7559 49.0847 34.7559 48.7385V19.345C34.7559 18.9988 35.0499 18.7592 35.3721 18.759Z" fill="#553433" stroke="#553433" stroke-width="0.5"/>
<path d="M35.3721 9.12671C36.7282 9.12671 37.9473 10.0892 38.9971 11.491C40.0544 12.9029 40.9845 14.8196 41.7549 16.8562C43.294 20.9253 44.2207 25.5473 44.2207 27.741C44.2207 32.204 40.2328 35.8699 35.3721 35.8699C30.5122 35.8699 26.5234 32.2451 26.5234 27.741C26.5235 25.5272 27.4501 20.9048 28.9893 16.8406C29.7596 14.8065 30.6897 12.8939 31.7471 11.4851C32.797 10.0863 34.0162 9.12672 35.3721 9.12671ZM35.3721 10.2986C34.9245 10.2986 34.4644 10.4812 33.9941 10.8396C33.5233 11.1984 33.055 11.7242 32.5977 12.3816C31.6831 13.6964 30.8386 15.5028 30.1182 17.45C28.6751 21.3499 27.7569 25.7412 27.7568 27.741C27.7568 31.6643 31.1541 34.699 35.3721 34.699C39.5873 34.699 42.9873 31.5526 42.9873 27.741C42.9873 25.7986 42.0692 21.4076 40.626 17.4929C39.9054 15.5384 39.0603 13.7211 38.1455 12.3972C37.6882 11.7354 37.2199 11.2061 36.749 10.8445C36.2787 10.4833 35.819 10.2986 35.3721 10.2986Z" fill="#553433" stroke="#553433" stroke-width="0.5"/>
<path d="M30.8145 21.0283C31.051 20.8608 31.3661 20.8837 31.5791 21.0557L31.6631 21.1387L31.666 21.1406L35.6533 25.9971H35.6523C35.8798 26.2689 35.7973 26.6404 35.5312 26.8291L35.5322 26.8301C35.4166 26.9125 35.2825 26.9434 35.167 26.9434C34.9883 26.9434 34.8066 26.8673 34.6826 26.7197L34.6807 26.7178L30.6924 21.8613L30.6943 21.8604C30.4672 21.5885 30.5484 21.2169 30.8145 21.0283Z" fill="#553433" stroke="#553433" stroke-width="0.5"/>
<path d="M39.2812 26.1716C39.5064 25.9329 39.8865 25.9175 40.1367 26.114C40.4069 26.3262 40.4324 26.7106 40.2012 26.9578L40.2002 26.9607L36.0283 31.3201L36.0254 31.323C35.9027 31.4466 35.735 31.5105 35.5693 31.5105C35.462 31.5105 35.3608 31.4855 35.2686 31.4373L35.1797 31.3816L35.1729 31.3767C34.903 31.1645 34.8774 30.7801 35.1084 30.533L35.1104 30.531L39.2812 26.1716Z" fill="#553433" stroke="#553433" stroke-width="0.5"/>
<path d="M24.8818 12.3911C25.2041 12.3911 25.499 12.6308 25.499 12.9771V48.2612C25.499 48.6075 25.2041 48.8472 24.8818 48.8472H24.6318V48.7896C24.4223 48.702 24.2656 48.5068 24.2656 48.2544V12.9771C24.2656 12.6309 24.5596 12.3913 24.8818 12.3911Z" fill="#553433" stroke="#553433" stroke-width="0.5"/>
<path d="M21.9727 30.9939C22.8076 31.3116 23.7848 31.4956 24.8779 31.5417H24.877C25.0971 31.5494 25.1911 31.5783 25.2637 31.5964C25.2962 31.6046 25.3264 31.6144 25.4688 31.5974L25.5771 31.5837L26 31.5212C26.076 31.5067 26.1434 31.4913 26.1953 31.4744C26.2556 31.4547 26.2646 31.443 26.2539 31.4529L26.4248 31.2966L26.5938 31.4539L27.1064 31.9304L27.3047 32.115L27.1055 32.2986C26.9274 32.4617 26.6977 32.5558 26.4668 32.6169C26.2349 32.6783 25.9789 32.712 25.7324 32.739L25.7314 32.738L25.6348 32.7517H25.6318C25.5585 32.7605 25.4967 32.7648 25.4434 32.7605C25.3751 32.755 25.3304 32.7366 25.2988 32.7214L25.2949 32.7195C25.2923 32.719 25.2876 32.7193 25.2803 32.7185V32.7195H25.1826C25.0665 32.7195 24.942 32.7198 24.8164 32.7126V32.7117C23.6023 32.6568 22.4907 32.4529 21.5156 32.0789L21.2686 31.9841L21.3779 31.7429L21.6562 31.1248L21.7529 30.9099L21.9727 30.9939Z" fill="#553433" stroke="#553433" stroke-width="0.5"/>
<path d="M24.8828 0.824463C25.8442 0.824542 26.719 1.31114 27.4971 2.06274C28.2756 2.81475 28.9796 3.85227 29.6045 5.00806C30.855 7.32094 31.8175 10.1578 32.4385 12.2688L32.5117 12.5188L32.2588 12.5813L31.5547 12.7561L31.3223 12.8137L31.2549 12.5842C30.2685 9.2232 29.1631 6.55433 28.0439 4.73169C27.4842 3.82017 26.9272 3.12967 26.3877 2.67017C25.8477 2.21028 25.3432 1.99641 24.8828 1.99634C23.8326 1.99634 22.9294 2.43568 22.0576 3.62817C21.1742 4.83666 20.3361 6.80243 19.4434 9.81958L19.376 10.0491L19.1436 9.99146L18.4395 9.81665L18.1865 9.75415L18.2607 9.50317C19.2189 6.26371 20.15 4.10047 21.1992 2.74536C22.2628 1.37172 23.4519 0.824463 24.8828 0.824463Z" fill="#553433" stroke="#553433" stroke-width="0.5"/>
<path d="M27.2002 15.7627C27.4141 15.5112 27.794 15.4849 28.0469 15.6689L28.0479 15.668L28.0498 15.6699L28.0518 15.6709L28.0508 15.6719C28.328 15.8716 28.37 16.252 28.1504 16.5039L28.1514 16.5049L25.6309 19.4375L25.6318 19.4385C25.5031 19.5918 25.3174 19.6552 25.1543 19.6553C25.0193 19.6553 24.8877 19.611 24.7812 19.5352L24.7822 19.5342C24.5008 19.3344 24.4572 18.9482 24.6807 18.6953H24.6816L27.2002 15.7627Z" fill="#553433" stroke="#553433" stroke-width="0.5"/>
<path d="M48.6338 48.1528C48.956 48.153 49.25 48.3926 49.25 48.7388C49.25 49.0849 48.9559 49.3246 48.6338 49.3247H1.36621C1.04405 49.3246 0.750048 49.0849 0.75 48.7388C0.75 48.3926 1.04402 48.153 1.36621 48.1528H48.6338Z" fill="#553433" stroke="#553433" stroke-width="0.5"/>
</svg>
