<svg width="47" height="47" viewBox="0 0 47 47" fill="none" xmlns="http://www.w3.org/2000/svg">
<path d="M25.0049 18.5854C28.4599 18.7873 31.2446 21.6348 31.2744 25.0903L31.2686 25.4224C31.2049 26.9661 30.6039 28.4136 29.5527 29.5571L29.3213 29.7974C28.1401 30.9617 26.597 31.634 24.9434 31.7134L24.6113 31.7212H24.5039L24.502 31.7192C21.0274 31.6639 18.162 28.9332 17.959 25.5347L17.9473 25.2026C17.9324 23.4246 18.6275 21.753 19.9014 20.4976L20.1445 20.2681C21.3865 19.1588 22.982 18.5582 24.6689 18.5737L25.0049 18.5854ZM24.6104 20.021C23.306 20.021 22.0782 20.4888 21.1191 21.3462L20.9316 21.5229C19.9374 22.503 19.3968 23.8042 19.4082 25.1899L19.417 25.4487C19.576 28.1048 21.8299 30.2493 24.5635 30.2729H24.6113C26.0024 30.2728 27.3063 29.7406 28.29 28.771L28.4707 28.5835C29.2912 27.691 29.7591 26.5638 29.8086 25.3608L29.8125 25.1021C29.7893 22.4148 27.6199 20.1877 24.9189 20.0298L24.6562 20.021H24.6104Z" fill="#553433" stroke="#553433" stroke-width="0.5"/>
<path d="M4.75586 13.5903C6.9616 13.5903 8.76148 15.3596 8.76172 17.5425C8.76172 19.1941 7.70695 20.6833 6.14062 21.2524L6.1416 21.2534C5.69824 21.4152 5.23113 21.4966 4.75586 21.4966C2.55001 21.4965 0.75 19.726 0.75 17.5425C0.750197 15.6909 2.02764 14.1077 3.84961 13.6909H3.85059L4.07422 13.647C4.29925 13.6092 4.52741 13.5903 4.75586 13.5903ZM4.60938 15.0425C4.46314 15.0506 4.31768 15.0693 4.17578 15.1011L4.17676 15.1021C3.01716 15.3673 2.21099 16.3714 2.21094 17.5425C2.21094 18.9207 3.34944 20.0482 4.75586 20.0483C5.05933 20.0483 5.35582 19.9966 5.63672 19.894H5.6377L5.82031 19.8188C6.71468 19.4128 7.30078 18.5198 7.30078 17.5425C7.30071 16.1649 6.1624 15.0376 4.75586 15.0376L4.60938 15.0425Z" fill="#553433" stroke="#553433" stroke-width="0.5"/>
<path d="M5.63965 5.9209C7.55585 4.16161 10.4005 3.49648 13.8418 3.94238L14.4795 4.03613C17.6966 4.56755 21.3058 6.00878 24.9658 8.21777L25.5762 8.59277C28.6205 10.4964 31.5607 12.8396 34.3242 15.5654L34.8584 16.1006C37.5073 18.7834 39.7874 21.6314 41.6406 24.5762L42.0889 25.3047C44.2747 28.9412 45.6615 32.5097 46.1006 35.6699L46.1787 36.3281C46.4869 39.4713 45.7916 42.0705 44.1064 43.8555L43.9287 44.0371C42.4826 45.463 40.4662 46.2257 38.0371 46.3154L37.5459 46.3242C37.0433 46.3242 36.524 46.2973 35.9893 46.2422L35.4492 46.1777C32.2456 45.7454 28.6276 44.3779 24.9404 42.2227L24.2021 41.7812C21.0184 39.8353 17.9433 37.4079 15.0625 34.5674C12.2992 31.8427 9.92305 28.9434 7.99121 25.9414L7.61035 25.3398C6.79416 24.0244 6.07634 22.7077 5.47266 21.417L5.2207 20.8652L5.01562 20.4043L4.90625 20.1592L5.15918 20.0684L5.6377 19.8936C6.63371 19.5317 7.30076 18.5858 7.30078 17.543C7.30078 16.1654 6.16244 15.0381 4.75586 15.0381C4.56029 15.0381 4.36498 15.0602 4.17578 15.1025L4.1748 15.1016L3.66602 15.2178L3.40039 15.2773L3.36328 15.0088L3.29102 14.4961C2.78867 10.9305 3.51713 8.00813 5.45801 6.09473L5.63965 5.9209ZM13.6523 5.37695C10.693 4.99392 8.34681 5.51998 6.78906 6.84473L6.48828 7.12109C5.03845 8.55068 4.39351 10.7631 4.65723 13.5938C4.6901 13.593 4.72294 13.5898 4.75586 13.5898C6.96174 13.5898 8.76172 15.3599 8.76172 17.543C8.76159 18.9315 8.0156 20.2035 6.84766 20.9121C7.41634 22.1167 8.08927 23.3482 8.85449 24.5811L9.22363 25.1641C11.096 28.0736 13.4035 30.8893 16.0928 33.541L16.6211 34.0547C19.2706 36.5982 22.076 38.781 24.9688 40.5488H24.9697L25.6787 40.9736C29.2178 43.0431 32.6511 44.3388 35.6475 44.7432L36.2383 44.8115C39.1531 45.0934 41.4327 44.4558 42.8984 43.0107L43.042 42.8643C44.4052 41.4166 44.9988 39.2264 44.7227 36.4502L44.6533 35.8672C44.2431 32.9145 42.9295 29.5307 40.8311 26.041L40.4014 25.3418C38.6053 22.4879 36.3913 19.7218 33.8135 17.1113L33.293 16.5918C30.6032 13.9391 27.7478 11.6628 24.7969 9.81738L24.2061 9.4541C20.6898 7.33197 17.2618 5.96472 14.249 5.46582L13.6523 5.37695Z" fill="#553433" stroke="#553433" stroke-width="0.5"/>
<path d="M34.415 0.824463C36.478 0.824463 38.1944 2.34954 38.4004 4.37817L38.416 4.57251C38.4195 4.63945 38.4209 4.70814 38.4209 4.77759C38.4209 6.89289 36.7321 8.62081 34.6211 8.72681L34.415 8.73169C32.7273 8.73169 31.2242 7.6812 30.6523 6.13501L30.5508 5.81958C30.4577 5.48245 30.4102 5.13179 30.4102 4.77759C30.4104 2.59428 32.2099 0.824579 34.415 0.824463ZM34.415 2.27173C33.0094 2.27173 31.8713 3.39938 31.8711 4.77759C31.8711 5.0034 31.9003 5.226 31.959 5.43774L32.0234 5.63696C32.3852 6.61442 33.3393 7.28345 34.415 7.28345C35.8215 7.2834 36.96 6.15587 36.96 4.77759C36.9599 4.68931 36.9556 4.6066 36.9473 4.53149V4.52856C36.8173 3.24282 35.732 2.27177 34.415 2.27173Z" fill="#553433" stroke="#553433" stroke-width="0.5"/>
<path d="M37.1406 3.71997L37.6855 3.72876L38.1621 3.74536C40.517 3.86797 42.436 4.62262 43.8467 6.01392L44.0234 6.19458C45.6987 7.96889 46.3956 10.5499 46.1006 13.6692L46.0254 14.3225C45.6011 17.4582 44.2383 21.0024 42.084 24.6165L41.6426 25.3401C39.656 28.5261 37.1654 31.6033 34.2412 34.4866C31.5018 37.1877 28.588 39.5143 25.5713 41.4094L24.9668 41.7825C21.2939 44.0104 17.6697 45.4669 14.4375 46.0081L13.7959 46.1038C13.1803 46.1847 12.5838 46.2282 12.0088 46.2385V46.2434H11.7588C9.27496 46.2434 7.19397 45.5704 5.67285 44.2336L5.37598 43.9573C3.44837 42.057 2.71646 39.159 3.19922 35.6262L3.29688 34.9915C3.85152 31.7932 5.33934 28.2097 7.61133 24.5793L7.98926 23.9856C9.90591 21.0278 12.2556 18.1714 14.9805 15.4846C17.8868 12.619 20.9894 10.1737 24.2031 8.21899L25.0674 7.7063C27.0803 6.54441 29.0768 5.61713 31.0137 4.94556L31.502 4.77661L31.7529 4.68872L31.8242 4.94556L31.96 5.43774L32.0244 5.63696C32.3862 6.61417 33.3396 7.28328 34.415 7.28345C35.8215 7.28345 36.96 6.1559 36.96 4.77759L36.9473 4.53149L36.8887 3.99731L36.8574 3.71509L37.1406 3.71997ZM38.3955 5.21216C38.1755 7.19148 36.4726 8.73169 34.415 8.73169C32.8836 8.73166 31.5057 7.86659 30.8359 6.552C29.1765 7.17509 27.4684 7.99246 25.7412 8.99341L24.9678 9.45239C21.853 11.3468 18.8395 13.7218 16.0107 16.511C13.3586 19.126 11.0766 21.9009 9.21875 24.7678L8.85352 25.342C6.67034 28.8305 5.25908 32.233 4.73828 35.2268L4.64648 35.8206C4.21805 38.9559 4.84966 41.3959 6.40625 42.9309C7.96405 44.4669 10.431 45.0871 13.6035 44.6692L14.2031 44.5793C17.2313 44.071 20.6742 42.6892 24.2041 40.5481L24.79 40.1858C27.714 38.3486 30.5439 36.0889 33.21 33.4602L33.7383 32.9319C36.3561 30.2798 38.5951 27.4732 40.3994 24.5793L40.8232 23.884C42.891 20.417 44.1808 17.0582 44.5771 14.1301L44.6445 13.552C44.909 10.7982 44.3134 8.62425 42.958 7.18579L42.8154 7.04028C41.7431 5.98296 40.2658 5.36344 38.3955 5.21216Z" fill="#553433" stroke="#553433" stroke-width="0.5"/>
</svg>
