<svg width="47" height="47" viewBox="0 0 47 47" fill="none" xmlns="http://www.w3.org/2000/svg">
<path d="M23.5039 0.824463C36.0507 0.824719 46.25 11.0317 46.25 23.5784C46.2497 36.1248 36.0436 46.331 23.5039 46.3313H23.2539V46.3206C10.8217 46.1863 0.750255 36.035 0.75 23.5784C0.75 11.0384 10.957 0.824463 23.5039 0.824463ZM23.5039 2.01099C11.6108 2.01099 1.93652 11.6853 1.93652 23.5784C1.93678 35.4712 11.611 45.1448 23.5039 45.1448C35.3965 45.1445 45.0632 35.4712 45.0635 23.5784C45.0635 11.6854 35.3898 2.01124 23.5039 2.01099Z" fill="#553433" stroke="#553433" stroke-width="0.5"/>
<path d="M14.9414 2.7207L15.6279 2.78223L15.8799 2.80469L15.8545 3.05664C15.8544 3.05768 15.854 3.061 15.8535 3.06738C15.8529 3.07539 15.8526 3.087 15.8516 3.10156C15.8495 3.13104 15.8459 3.17398 15.8428 3.22852C15.8364 3.33758 15.8287 3.49549 15.8223 3.69629C15.8094 4.09822 15.8025 4.67327 15.8223 5.37891C15.8619 6.79098 16.0103 8.72431 16.4443 10.8438C17.314 15.0896 19.3192 20.0445 23.835 23.082L24.043 23.2217L23.9023 23.4297L23.5176 23.999L23.3779 24.2061L23.1709 24.0664C18.3309 20.8105 16.208 15.549 15.293 11.1162C14.3784 6.68542 14.661 3.04132 14.6699 2.94629L14.6934 2.69824L14.9414 2.7207Z" fill="#553433" stroke="#553433" stroke-width="0.5"/>
<path d="M4.85742 11.043L5.53711 11.125L5.78613 11.1553L5.75586 11.4043C5.75586 11.4043 5.75516 11.4057 5.75488 11.4082C5.75459 11.4108 5.75438 11.4144 5.75391 11.4189C5.75291 11.4284 5.75163 11.4419 5.75 11.459C5.74674 11.493 5.74224 11.5418 5.7373 11.6045C5.72739 11.7304 5.71513 11.9126 5.70508 12.1445C5.68499 12.6083 5.67309 13.2716 5.70508 14.0859C5.7691 15.7154 6.00792 17.9468 6.69922 20.3936C8.08097 25.2838 11.2697 31.0301 18.5 34.5723L18.8379 34.7383L18.5547 34.9854L17.6641 35.7627L17.5391 35.8721L17.3896 35.7988C9.77794 32.0675 6.56787 25.9682 5.2666 20.79C4.61646 18.2028 4.44229 15.8437 4.43164 14.1211C4.42632 13.2595 4.4613 12.5558 4.49902 12.0615C4.51788 11.8145 4.53767 11.6197 4.55273 11.4834C4.56024 11.4155 4.56654 11.3622 4.57129 11.3242C4.57367 11.3052 4.57572 11.2893 4.57715 11.2783C4.57781 11.2732 4.57872 11.2685 4.5791 11.2656C4.57954 11.2623 4.5791 11.2607 4.5791 11.2607L4.60938 11.0127L4.85742 11.043Z" fill="#553433" stroke="#553433" stroke-width="0.5"/>
<path d="M23.2441 23.1262C28.498 20.6074 34.1227 21.3845 38.4238 22.7825C42.7286 24.1816 45.7469 26.2147 45.8164 26.261L46.0283 26.4026L45.8828 26.6116L45.5361 27.1096V27.4983L45.1504 27.2483C45.094 27.2118 42.2033 25.2635 38.0898 23.9182C33.9706 22.571 28.6647 21.8415 23.7559 24.1946L23.5303 24.303L23.4219 24.0774L23.127 23.4592L23.0195 23.2336L23.2441 23.1262Z" fill="#553433" stroke="#553433" stroke-width="0.5"/>
<path d="M16.8037 12.5283C23.6361 8.2974 30.1649 8.56132 35.043 9.93262C37.5584 10.6398 39.6362 11.641 41.0928 12.4717C41.8212 12.8871 42.3952 13.2603 42.792 13.5332C42.9904 13.6697 43.145 13.7812 43.252 13.8604C43.2871 13.8864 43.317 13.909 43.3418 13.9277C43.3924 13.963 43.4217 13.9841 43.4287 13.9893L44.04 14.4395L43.2812 14.4404H43.1914L43.126 14.3916C43.12 14.3872 43.0912 14.365 43.041 14.3271C42.4813 13.9387 39.4084 11.9056 34.9561 10.8018C30.0653 9.58926 23.5179 9.49936 16.7949 13.9395L16.5869 14.0762L16.4482 13.8682L16.0713 13.2988L15.9326 13.0898L16.1416 12.9521L16.8037 12.5283Z" fill="#553433" stroke="#553433" stroke-width="0.5"/>
<path d="M23.335 23.0266L24.0225 23.0745L24.2715 23.092L24.2539 23.342C23.8349 29.1611 20.2418 33.6498 16.7705 36.678C13.4871 39.5423 10.2816 41.1251 9.87598 41.3206L9.64453 41.553L9.49414 41.2278L9.20605 40.6028L9.10156 40.3782L9.3252 40.2727C9.38152 40.246 12.6304 38.7117 15.9609 35.8157C19.2951 32.9165 22.6769 28.6829 23.0684 23.2581L23.0869 23.009L23.335 23.0266Z" fill="#553433" stroke="#553433" stroke-width="0.5"/>
<path d="M36.4355 22.6135C36.9838 31.0733 33.3906 36.9228 29.6465 40.6575C25.9075 44.3868 22.0132 46.0146 21.9219 46.052L21.6904 46.1467L21.5957 45.9153L21.335 45.2766L21.2402 45.0452L21.4717 44.9504C21.5312 44.9261 25.2435 43.3738 28.8066 39.8167C32.3648 36.2644 35.7695 30.7192 35.25 22.6877L35.2344 22.4368L35.4844 22.4221L36.1719 22.3801L36.4199 22.3655L36.4355 22.6135Z" fill="#553433" stroke="#553433" stroke-width="0.5"/>
</svg>
