<svg width="50" height="50" viewBox="0 0 50 50" fill="none" xmlns="http://www.w3.org/2000/svg">
<path d="M25.001 12.6843C31.86 12.6845 37.4404 18.2657 37.4404 25.1248C37.4403 31.9837 31.8599 37.564 25.001 37.5642C18.1416 37.5642 12.5607 31.9838 12.5605 25.1248C12.5605 18.2655 18.1418 12.6843 25.001 12.6843ZM25.001 13.948C18.8386 13.948 13.8244 18.9614 13.8242 25.1238C13.8242 31.2863 18.8385 36.3005 25.001 36.3005C31.1633 36.3004 36.1768 31.2862 36.1768 25.1238C36.1766 18.9615 31.1632 13.9482 25.001 13.948Z" fill="#553433" stroke="#553433" stroke-width="0.3"/>
<path d="M25.001 12.6843C31.86 12.6845 37.4404 18.2657 37.4404 25.1248C37.4403 31.9837 31.8599 37.564 25.001 37.5642C18.1416 37.5642 12.5607 31.9838 12.5605 25.1248C12.5605 18.2655 18.1418 12.6843 25.001 12.6843ZM25.001 13.948C18.8386 13.948 13.8244 18.9614 13.8242 25.1238C13.8242 31.2863 18.8385 36.3005 25.001 36.3005C31.1633 36.3004 36.1768 31.2862 36.1768 25.1238C36.1766 18.9615 31.1632 13.9482 25.001 13.948Z" fill="#553433" stroke="#553433" stroke-width="0.3"/>
<mask id="path-3-outside-1_3086_4022" maskUnits="userSpaceOnUse" x="0" y="0.0556641" width="50" height="50" fill="black">
<rect fill="white" y="0.0556641" width="50" height="50"/>
<path d="M27.1116 49.171H27.1097L22.6813 49.1515C22.4153 49.1503 22.2006 48.9336 22.2016 48.6677L22.2277 42.6657C19.4854 42.2347 16.8685 41.1555 14.6107 39.5242L10.1944 43.9402C10.0065 44.1284 9.70132 44.1284 9.51307 43.9402L6.38147 40.8086C6.29101 40.7181 6.24035 40.5958 6.24035 40.468C6.24035 40.3403 6.29101 40.2177 6.38147 40.1275L10.7669 35.7421C9.08463 33.4897 7.95921 30.8637 7.49159 28.0993H1.48164C1.21566 28.0993 1 27.8837 1 27.6177V23.1903C1 22.9243 1.21566 22.7086 1.48164 22.7086H7.40654C7.80759 19.7647 8.94447 16.9707 10.7143 14.5775L6.36809 10.2313C6.17983 10.0434 6.17983 9.73819 6.36809 9.54993L9.49841 6.41834C9.58888 6.32787 9.71121 6.27722 9.83926 6.27722C9.96732 6.27722 10.0896 6.32787 10.1798 6.41834L14.5365 10.7751C16.8539 9.08327 19.5497 7.97761 22.3813 7.55777L22.4074 1.53539C22.408 1.40765 22.4593 1.28533 22.5501 1.19519C22.6402 1.10568 22.7622 1.05566 22.8893 1.05566H22.8912L27.3196 1.0751C27.5856 1.07637 27.8003 1.29298 27.7994 1.55896L27.7732 7.58134C30.614 8.02794 33.3101 9.16513 35.6186 10.8904L39.8342 6.67476C40.0222 6.48651 40.3273 6.48651 40.5156 6.67476L43.6472 9.80636C43.7377 9.89683 43.7883 10.0191 43.7883 10.1469C43.7883 10.2746 43.7373 10.3973 43.6472 10.4877L39.4007 14.733C41.1046 17.0908 42.2023 19.8316 42.5944 22.7083H48.5184C48.7843 22.7083 49 22.924 49 23.1899V27.6174C49 27.8834 48.7843 28.099 48.5184 28.099H42.5084C42.0523 30.7984 40.9663 33.3709 39.3481 35.5864L43.6325 39.8708C43.8208 40.0587 43.8208 40.3639 43.6325 40.5521L40.5019 43.6837C40.4114 43.7742 40.2891 43.8249 40.1611 43.8249C40.033 43.8249 39.9107 43.7742 39.8205 43.6837L35.5463 39.4098C33.2092 41.1376 30.485 42.2646 27.6191 42.6889L27.5929 48.6909C27.5923 48.8187 27.541 48.941 27.4502 49.0311C27.3598 49.1206 27.2381 49.1706 27.111 49.1706L27.1116 49.171ZM23.1671 48.1902L26.6319 48.2055L26.6577 42.2662C26.6587 42.0238 26.8399 41.8199 27.0804 41.7903C30.0683 41.4211 32.9091 40.2463 35.295 38.3924C35.4864 38.2433 35.7594 38.2602 35.9311 38.4322L40.1614 42.6625L42.6107 40.2126L38.3715 35.9734C38.2004 35.8023 38.1826 35.5313 38.3301 35.3395C40.0735 33.0692 41.211 30.3753 41.6194 27.5492C41.6538 27.3122 41.8567 27.1364 42.0962 27.1364H48.0364V23.6725H42.1685C41.9232 23.6725 41.7168 23.4881 41.6897 23.2441C41.3556 20.2447 40.212 17.3864 38.3829 14.9779C38.2371 14.7861 38.2555 14.516 38.426 14.3459L42.6253 10.1475L40.1751 7.69729L36.0015 11.8705C35.8292 12.0432 35.5549 12.0594 35.3632 11.9087C33.0053 10.0561 30.1916 8.86921 27.2263 8.47613C26.9861 8.44427 26.8068 8.23881 26.8077 7.9964L26.8335 2.0371L23.3687 2.02181L23.3429 7.98143C23.342 8.22384 23.1607 8.42771 22.9202 8.45733C19.9654 8.8227 17.1524 9.97615 14.7843 11.7934C14.5929 11.9406 14.3215 11.9231 14.1504 11.7517L9.83926 7.44054L7.38998 9.89046L11.6925 14.193C11.8642 14.3647 11.8814 14.6374 11.7324 14.8291C9.83607 17.2689 8.65268 20.1784 8.3112 23.2431C8.28413 23.4872 8.07772 23.6716 7.83244 23.6716H1.96359V27.1354H7.90379C8.14302 27.1354 8.34625 27.3113 8.38065 27.5483C8.79922 30.4378 9.97655 33.183 11.7852 35.4867C11.9359 35.6784 11.9193 35.9524 11.747 36.1247L7.40399 40.4677L9.85423 42.918L14.2234 38.5488C14.3935 38.3784 14.6636 38.3602 14.8554 38.5058C17.1686 40.2623 19.9071 41.3912 22.775 41.7709C23.0152 41.8027 23.1945 42.0082 23.1935 42.2506L23.1677 48.1898L23.1671 48.1902ZM25.0016 37.4139C24.9646 37.4139 24.9277 37.4139 24.8904 37.4135C18.2294 37.3552 12.7657 31.8884 12.7112 25.227C12.6842 21.904 13.9628 18.7807 16.3121 16.4324C18.6355 14.1099 21.7171 12.8344 24.9994 12.8344C25.0357 12.8344 25.0717 12.8344 25.108 12.8348C31.7681 12.8918 37.233 18.3564 37.29 25.0168C37.3184 28.3411 36.0398 31.4657 33.6899 33.8153C31.3661 36.1384 28.2845 37.4139 25.0016 37.4139ZM24.9997 13.7977C21.9742 13.7977 19.1343 14.9728 16.9931 17.1137C14.8283 19.2779 13.6497 22.1563 13.6748 25.2191C13.7252 31.358 18.7604 36.3961 24.899 36.4499C27.9624 36.4777 30.8427 35.2994 33.0085 33.1339C35.1743 30.9685 36.3526 28.0888 36.3264 25.0251C36.2739 18.8871 31.2377 13.8509 25.0997 13.7983C25.0666 13.7983 25.0331 13.798 24.9997 13.798V13.7977Z"/>
</mask>
<path d="M27.1116 49.171H27.1097L22.6813 49.1515C22.4153 49.1503 22.2006 48.9336 22.2016 48.6677L22.2277 42.6657C19.4854 42.2347 16.8685 41.1555 14.6107 39.5242L10.1944 43.9402C10.0065 44.1284 9.70132 44.1284 9.51307 43.9402L6.38147 40.8086C6.29101 40.7181 6.24035 40.5958 6.24035 40.468C6.24035 40.3403 6.29101 40.2177 6.38147 40.1275L10.7669 35.7421C9.08463 33.4897 7.95921 30.8637 7.49159 28.0993H1.48164C1.21566 28.0993 1 27.8837 1 27.6177V23.1903C1 22.9243 1.21566 22.7086 1.48164 22.7086H7.40654C7.80759 19.7647 8.94447 16.9707 10.7143 14.5775L6.36809 10.2313C6.17983 10.0434 6.17983 9.73819 6.36809 9.54993L9.49841 6.41834C9.58888 6.32787 9.71121 6.27722 9.83926 6.27722C9.96732 6.27722 10.0896 6.32787 10.1798 6.41834L14.5365 10.7751C16.8539 9.08327 19.5497 7.97761 22.3813 7.55777L22.4074 1.53539C22.408 1.40765 22.4593 1.28533 22.5501 1.19519C22.6402 1.10568 22.7622 1.05566 22.8893 1.05566H22.8912L27.3196 1.0751C27.5856 1.07637 27.8003 1.29298 27.7994 1.55896L27.7732 7.58134C30.614 8.02794 33.3101 9.16513 35.6186 10.8904L39.8342 6.67476C40.0222 6.48651 40.3273 6.48651 40.5156 6.67476L43.6472 9.80636C43.7377 9.89683 43.7883 10.0191 43.7883 10.1469C43.7883 10.2746 43.7373 10.3973 43.6472 10.4877L39.4007 14.733C41.1046 17.0908 42.2023 19.8316 42.5944 22.7083H48.5184C48.7843 22.7083 49 22.924 49 23.1899V27.6174C49 27.8834 48.7843 28.099 48.5184 28.099H42.5084C42.0523 30.7984 40.9663 33.3709 39.3481 35.5864L43.6325 39.8708C43.8208 40.0587 43.8208 40.3639 43.6325 40.5521L40.5019 43.6837C40.4114 43.7742 40.2891 43.8249 40.1611 43.8249C40.033 43.8249 39.9107 43.7742 39.8205 43.6837L35.5463 39.4098C33.2092 41.1376 30.485 42.2646 27.6191 42.6889L27.5929 48.6909C27.5923 48.8187 27.541 48.941 27.4502 49.0311C27.3598 49.1206 27.2381 49.1706 27.111 49.1706L27.1116 49.171ZM23.1671 48.1902L26.6319 48.2055L26.6577 42.2662C26.6587 42.0238 26.8399 41.8199 27.0804 41.7903C30.0683 41.4211 32.9091 40.2463 35.295 38.3924C35.4864 38.2433 35.7594 38.2602 35.9311 38.4322L40.1614 42.6625L42.6107 40.2126L38.3715 35.9734C38.2004 35.8023 38.1826 35.5313 38.3301 35.3395C40.0735 33.0692 41.211 30.3753 41.6194 27.5492C41.6538 27.3122 41.8567 27.1364 42.0962 27.1364H48.0364V23.6725H42.1685C41.9232 23.6725 41.7168 23.4881 41.6897 23.2441C41.3556 20.2447 40.212 17.3864 38.3829 14.9779C38.2371 14.7861 38.2555 14.516 38.426 14.3459L42.6253 10.1475L40.1751 7.69729L36.0015 11.8705C35.8292 12.0432 35.5549 12.0594 35.3632 11.9087C33.0053 10.0561 30.1916 8.86921 27.2263 8.47613C26.9861 8.44427 26.8068 8.23881 26.8077 7.9964L26.8335 2.0371L23.3687 2.02181L23.3429 7.98143C23.342 8.22384 23.1607 8.42771 22.9202 8.45733C19.9654 8.8227 17.1524 9.97615 14.7843 11.7934C14.5929 11.9406 14.3215 11.9231 14.1504 11.7517L9.83926 7.44054L7.38998 9.89046L11.6925 14.193C11.8642 14.3647 11.8814 14.6374 11.7324 14.8291C9.83607 17.2689 8.65268 20.1784 8.3112 23.2431C8.28413 23.4872 8.07772 23.6716 7.83244 23.6716H1.96359V27.1354H7.90379C8.14302 27.1354 8.34625 27.3113 8.38065 27.5483C8.79922 30.4378 9.97655 33.183 11.7852 35.4867C11.9359 35.6784 11.9193 35.9524 11.747 36.1247L7.40399 40.4677L9.85423 42.918L14.2234 38.5488C14.3935 38.3784 14.6636 38.3602 14.8554 38.5058C17.1686 40.2623 19.9071 41.3912 22.775 41.7709C23.0152 41.8027 23.1945 42.0082 23.1935 42.2506L23.1677 48.1898L23.1671 48.1902ZM25.0016 37.4139C24.9646 37.4139 24.9277 37.4139 24.8904 37.4135C18.2294 37.3552 12.7657 31.8884 12.7112 25.227C12.6842 21.904 13.9628 18.7807 16.3121 16.4324C18.6355 14.1099 21.7171 12.8344 24.9994 12.8344C25.0357 12.8344 25.0717 12.8344 25.108 12.8348C31.7681 12.8918 37.233 18.3564 37.29 25.0168C37.3184 28.3411 36.0398 31.4657 33.6899 33.8153C31.3661 36.1384 28.2845 37.4139 25.0016 37.4139ZM24.9997 13.7977C21.9742 13.7977 19.1343 14.9728 16.9931 17.1137C14.8283 19.2779 13.6497 22.1563 13.6748 25.2191C13.7252 31.358 18.7604 36.3961 24.899 36.4499C27.9624 36.4777 30.8427 35.2994 33.0085 33.1339C35.1743 30.9685 36.3526 28.0888 36.3264 25.0251C36.2739 18.8871 31.2377 13.8509 25.0997 13.7983C25.0666 13.7983 25.0331 13.798 24.9997 13.798V13.7977Z" fill="#553433"/>
<path d="M27.1116 49.171H27.1097L22.6813 49.1515C22.4153 49.1503 22.2006 48.9336 22.2016 48.6677L22.2277 42.6657C19.4854 42.2347 16.8685 41.1555 14.6107 39.5242L10.1944 43.9402C10.0065 44.1284 9.70132 44.1284 9.51307 43.9402L6.38147 40.8086C6.29101 40.7181 6.24035 40.5958 6.24035 40.468C6.24035 40.3403 6.29101 40.2177 6.38147 40.1275L10.7669 35.7421C9.08463 33.4897 7.95921 30.8637 7.49159 28.0993H1.48164C1.21566 28.0993 1 27.8837 1 27.6177V23.1903C1 22.9243 1.21566 22.7086 1.48164 22.7086H7.40654C7.80759 19.7647 8.94447 16.9707 10.7143 14.5775L6.36809 10.2313C6.17983 10.0434 6.17983 9.73819 6.36809 9.54993L9.49841 6.41834C9.58888 6.32787 9.71121 6.27722 9.83926 6.27722C9.96732 6.27722 10.0896 6.32787 10.1798 6.41834L14.5365 10.7751C16.8539 9.08327 19.5497 7.97761 22.3813 7.55777L22.4074 1.53539C22.408 1.40765 22.4593 1.28533 22.5501 1.19519C22.6402 1.10568 22.7622 1.05566 22.8893 1.05566H22.8912L27.3196 1.0751C27.5856 1.07637 27.8003 1.29298 27.7994 1.55896L27.7732 7.58134C30.614 8.02794 33.3101 9.16513 35.6186 10.8904L39.8342 6.67476C40.0222 6.48651 40.3273 6.48651 40.5156 6.67476L43.6472 9.80636C43.7377 9.89683 43.7883 10.0191 43.7883 10.1469C43.7883 10.2746 43.7373 10.3973 43.6472 10.4877L39.4007 14.733C41.1046 17.0908 42.2023 19.8316 42.5944 22.7083H48.5184C48.7843 22.7083 49 22.924 49 23.1899V27.6174C49 27.8834 48.7843 28.099 48.5184 28.099H42.5084C42.0523 30.7984 40.9663 33.3709 39.3481 35.5864L43.6325 39.8708C43.8208 40.0587 43.8208 40.3639 43.6325 40.5521L40.5019 43.6837C40.4114 43.7742 40.2891 43.8249 40.1611 43.8249C40.033 43.8249 39.9107 43.7742 39.8205 43.6837L35.5463 39.4098C33.2092 41.1376 30.485 42.2646 27.6191 42.6889L27.5929 48.6909C27.5923 48.8187 27.541 48.941 27.4502 49.0311C27.3598 49.1206 27.2381 49.1706 27.111 49.1706L27.1116 49.171ZM23.1671 48.1902L26.6319 48.2055L26.6577 42.2662C26.6587 42.0238 26.8399 41.8199 27.0804 41.7903C30.0683 41.4211 32.9091 40.2463 35.295 38.3924C35.4864 38.2433 35.7594 38.2602 35.9311 38.4322L40.1614 42.6625L42.6107 40.2126L38.3715 35.9734C38.2004 35.8023 38.1826 35.5313 38.3301 35.3395C40.0735 33.0692 41.211 30.3753 41.6194 27.5492C41.6538 27.3122 41.8567 27.1364 42.0962 27.1364H48.0364V23.6725H42.1685C41.9232 23.6725 41.7168 23.4881 41.6897 23.2441C41.3556 20.2447 40.212 17.3864 38.3829 14.9779C38.2371 14.7861 38.2555 14.516 38.426 14.3459L42.6253 10.1475L40.1751 7.69729L36.0015 11.8705C35.8292 12.0432 35.5549 12.0594 35.3632 11.9087C33.0053 10.0561 30.1916 8.86921 27.2263 8.47613C26.9861 8.44427 26.8068 8.23881 26.8077 7.9964L26.8335 2.0371L23.3687 2.02181L23.3429 7.98143C23.342 8.22384 23.1607 8.42771 22.9202 8.45733C19.9654 8.8227 17.1524 9.97615 14.7843 11.7934C14.5929 11.9406 14.3215 11.9231 14.1504 11.7517L9.83926 7.44054L7.38998 9.89046L11.6925 14.193C11.8642 14.3647 11.8814 14.6374 11.7324 14.8291C9.83607 17.2689 8.65268 20.1784 8.3112 23.2431C8.28413 23.4872 8.07772 23.6716 7.83244 23.6716H1.96359V27.1354H7.90379C8.14302 27.1354 8.34625 27.3113 8.38065 27.5483C8.79922 30.4378 9.97655 33.183 11.7852 35.4867C11.9359 35.6784 11.9193 35.9524 11.747 36.1247L7.40399 40.4677L9.85423 42.918L14.2234 38.5488C14.3935 38.3784 14.6636 38.3602 14.8554 38.5058C17.1686 40.2623 19.9071 41.3912 22.775 41.7709C23.0152 41.8027 23.1945 42.0082 23.1935 42.2506L23.1677 48.1898L23.1671 48.1902ZM25.0016 37.4139C24.9646 37.4139 24.9277 37.4139 24.8904 37.4135C18.2294 37.3552 12.7657 31.8884 12.7112 25.227C12.6842 21.904 13.9628 18.7807 16.3121 16.4324C18.6355 14.1099 21.7171 12.8344 24.9994 12.8344C25.0357 12.8344 25.0717 12.8344 25.108 12.8348C31.7681 12.8918 37.233 18.3564 37.29 25.0168C37.3184 28.3411 36.0398 31.4657 33.6899 33.8153C31.3661 36.1384 28.2845 37.4139 25.0016 37.4139ZM24.9997 13.7977C21.9742 13.7977 19.1343 14.9728 16.9931 17.1137C14.8283 19.2779 13.6497 22.1563 13.6748 25.2191C13.7252 31.358 18.7604 36.3961 24.899 36.4499C27.9624 36.4777 30.8427 35.2994 33.0085 33.1339C35.1743 30.9685 36.3526 28.0888 36.3264 25.0251C36.2739 18.8871 31.2377 13.8509 25.0997 13.7983C25.0666 13.7983 25.0331 13.798 24.9997 13.798V13.7977Z" stroke="#553433" stroke-width="0.8" mask="url(#path-3-outside-1_3086_4022)"/>
<path d="M25 27.8767C25.2079 27.8767 25.3826 27.9871 25.499 28.1384C25.6152 28.2897 25.6816 28.4906 25.6816 28.7039V36.2908C25.6816 36.5042 25.6152 36.7049 25.499 36.8562C25.3826 37.0076 25.2078 37.1179 25 37.1179C24.7921 37.1179 24.6173 37.0076 24.501 36.8562C24.3848 36.7049 24.3184 36.504 24.3184 36.2908V28.7039C24.3184 28.4905 24.3848 28.2897 24.501 28.1384C24.6174 27.987 24.7922 27.8768 25 27.8767Z" fill="#553433" stroke="#553433" stroke-width="0.4"/>
<path d="M28.4678 29.9275C28.8439 29.9277 29.1493 30.2329 29.1494 30.6091V36.4363C29.1493 36.8125 28.844 37.1177 28.4678 37.1179H28.4668C28.0905 37.1178 27.7852 36.8126 27.7852 36.4363V30.6091C27.7853 30.2328 28.0905 29.9276 28.4668 29.9275H28.4678Z" fill="#553433" stroke="#553433" stroke-width="0.4"/>
<path d="M28.126 30.9122L32.9271 26.1111" stroke="#553433" stroke-width="0.4"/>
<path d="M32.1044 25.9691L32.2115 25.8814C32.476 25.707 32.8356 25.7364 33.0684 25.9691L33.0691 25.9698C33.3349 26.236 33.3351 26.6677 33.0691 26.9338L28.9487 31.0542C28.6826 31.3202 28.2509 31.32 27.9847 31.0542L27.984 31.0535C27.718 30.7874 27.718 30.3557 27.984 30.0895L32.1044 25.9691Z" fill="#553433" stroke="#553433" stroke-width="0.4"/>
<path d="M21.8574 30.0264C22.2336 30.0266 22.539 30.3318 22.5391 30.708V36.5352C22.539 36.9114 22.2336 37.2165 21.8574 37.2168H21.8564C21.4801 37.2167 21.1749 36.9115 21.1748 36.5352V30.708C21.1749 30.3317 21.4801 30.0265 21.8564 30.0264H21.8574Z" fill="#553433" stroke="#553433" stroke-width="0.4"/>
<path d="M32.5879 19.6941C32.9641 19.6943 33.2694 19.9995 33.2695 20.3757V26.2029C33.2694 26.5791 32.9641 26.8843 32.5879 26.8845H32.5869C32.2106 26.8844 31.9054 26.5792 31.9053 26.2029V20.3757L31.9189 20.239C31.9823 19.9282 32.2574 19.6942 32.5869 19.6941H32.5879Z" fill="#553433" stroke="#553433" stroke-width="0.4"/>
<path d="M22.1979 30.9119L17.3965 26.1108" stroke="#553433" stroke-width="0.4"/>
<path d="M17.2552 25.9687C17.5214 25.7029 17.9531 25.7028 18.2192 25.9687L22.3396 30.0891C22.6056 30.3552 22.6055 30.787 22.3396 31.0531L22.3389 31.0538C22.0728 31.3199 21.6411 31.3199 21.375 31.0538L17.2545 26.9334C16.9885 26.6672 16.9885 26.2356 17.2545 25.9694L17.2552 25.9687Z" fill="#553433" stroke="#553433" stroke-width="0.4"/>
<path d="M17.7363 26.6844V19.8943" stroke="#553433" stroke-width="0.4"/>
<path d="M17.7373 19.6941C18.1135 19.6943 18.4188 19.9995 18.4189 20.3757V26.2029C18.4189 26.5791 18.1135 26.8843 17.7373 26.8845H17.7363C17.36 26.8844 17.0548 26.5792 17.0547 26.2029V20.3757L17.0684 20.239C17.1317 19.9282 17.4068 19.6942 17.7363 19.6941H17.7373Z" fill="#553433" stroke="#553433" stroke-width="0.4"/>
<path d="M25 21.49C27.0038 21.49 28.6336 23.12 28.6338 25.1238C28.6338 27.1277 27.0039 28.7576 25 28.7576C22.9963 28.7574 21.3662 27.1276 21.3662 25.1238C21.3664 23.1201 22.9964 21.4902 25 21.49ZM25 22.8542C23.7486 22.8544 22.7306 23.8724 22.7305 25.1238C22.7305 26.3753 23.7485 27.3941 25 27.3943C26.2516 27.3943 27.2705 26.3754 27.2705 25.1238C27.2703 23.8723 26.2515 22.8542 25 22.8542Z" fill="#553433" stroke="#553433" stroke-width="0.4"/>
</svg>
