<svg width="50" height="42" viewBox="0 0 50 42" fill="none" xmlns="http://www.w3.org/2000/svg">
<path d="M27.7607 0.842041C30.1699 0.858085 32.402 0.882533 34.042 0.902588C34.862 0.912616 35.5347 0.92146 36.0068 0.927979C36.2427 0.931235 36.4291 0.933975 36.5586 0.935791C36.623 0.936694 36.6734 0.937269 36.709 0.937744C36.7266 0.937979 36.7409 0.938601 36.751 0.938721H36.7676C36.9357 0.938721 38.3774 0.982233 39.9365 2.94751C41.4848 4.89914 43.1379 8.73173 43.8066 16.2708L43.8281 16.5129L43.5869 16.5413L43.1201 16.5959L42.8652 16.6262L42.8418 16.3704C42.2006 9.16558 40.6409 5.56583 39.2676 3.77271C37.9071 1.99629 36.7245 1.98468 36.7627 1.98462C36.5689 1.98425 22.3028 1.76362 15.7305 1.94263L14.5244 1.98462C13.2302 2.04113 12.1146 2.90245 11.1592 4.24829C10.2066 5.59017 9.44543 7.37012 8.85352 9.16431C7.67154 12.7472 7.18524 16.3222 7.17578 16.3958L6.92383 16.3792L6.88379 16.6047L6.41797 16.5227L6.18164 16.4817L6.21289 16.2434C6.25381 15.9366 6.76119 12.2122 8.01562 8.52563C8.64264 6.68304 9.46161 4.83318 10.5137 3.4231C11.5647 2.01452 12.876 1.00901 14.4883 0.938721L15.7012 0.896729C18.7849 0.811007 23.5471 0.81398 27.7607 0.842041Z" fill="#553433" stroke="#553433" stroke-width="0.5"/>
<path d="M33.9629 3.18286L35.165 3.19946L35.1641 3.20044C35.3292 3.20097 36.5646 3.25395 37.8955 4.92798C39.223 6.59768 40.6337 9.86461 41.2012 16.2708L41.2227 16.5129L40.9814 16.5413L40.5146 16.5959L40.2598 16.6262L40.2373 16.3694C39.6974 10.2844 38.3841 7.25031 37.2344 5.74243C36.095 4.24821 35.1111 4.24537 35.1611 4.24536H35.1582L33.957 4.22876L33.71 4.22583V3.17896L33.9629 3.18286Z" fill="#553433" stroke="#553433" stroke-width="0.5"/>
<path d="M31.4492 4.14795L31.1982 4.14697C28.0539 4.13741 20.4722 4.1527 17.3496 4.21143L16.3105 4.23975C15.2382 4.28673 14.307 5.00283 13.5039 6.13721C12.7037 7.26754 12.0627 8.76888 11.5635 10.2847C11.0653 11.7976 10.713 13.3106 10.4844 14.4536C10.3702 15.0246 10.2875 15.5028 10.2324 15.8413C10.2049 16.0105 10.1847 16.1452 10.1709 16.2388C10.1641 16.2852 10.1588 16.3216 10.1553 16.3472C10.1535 16.36 10.1513 16.3703 10.1504 16.3774L10.1494 16.3872L10.1182 16.6509L9.85742 16.605L9.3916 16.5229L9.15625 16.4819L9.18652 16.2446L9.29004 15.5483C9.47572 14.3985 9.91927 12.026 10.7217 9.67139C11.2562 8.10279 11.9557 6.52548 12.8555 5.32178C13.7543 4.11945 14.881 3.25448 16.2705 3.19385L17.3184 3.16553C20.4613 3.10643 28.0597 3.09153 31.1992 3.10107H31.4492V4.14795Z" fill="#553433" stroke="#553433" stroke-width="0.5"/>
<path d="M43.3223 15.7979C43.4058 15.798 43.4706 15.8368 43.4902 15.8486C43.5216 15.8677 43.5515 15.8921 43.5791 15.915C43.6352 15.9617 43.7016 16.0253 43.7744 16.0996C43.9211 16.2494 44.1114 16.4598 44.3271 16.71C44.7597 17.2114 45.3074 17.882 45.8447 18.5625C46.382 19.243 46.9111 19.9362 47.3066 20.4834C47.5041 20.7565 47.6704 20.9961 47.7881 21.1807C47.8466 21.2724 47.8953 21.3549 47.9307 21.4229C47.9482 21.4566 47.965 21.4913 47.9775 21.5244C47.9876 21.5509 48.0058 21.6024 48.0059 21.6611V34.708C48.0056 35.1786 47.671 35.6312 47.1758 35.6338V35.6348H3.20898C2.71638 35.6345 2.38011 35.1853 2.37988 34.708V21.6611L2.3877 21.5693C2.39552 21.5287 2.40945 21.4867 2.42871 21.4404C2.46609 21.3507 2.53401 21.2235 2.6543 21.0273C2.8967 20.6321 3.37585 19.9184 4.3252 18.5889L4.96484 17.7012C5.52782 16.9276 5.87314 16.4805 6.09375 16.2217C6.23838 16.052 6.343 15.9471 6.42969 15.8857C6.47618 15.8529 6.5248 15.8264 6.5791 15.8115C6.63387 15.7966 6.68029 15.7979 6.69629 15.7979H43.3223ZM6.87891 16.8389C6.75203 16.9861 6.52537 17.2743 6.23926 17.6553C5.89796 18.1098 5.48272 18.6789 5.07227 19.252C4.6616 19.8253 4.2562 20.4022 3.93652 20.8711C3.64448 21.2994 3.43543 21.6234 3.35059 21.7764V34.5889H47.0342V21.792C46.9365 21.6368 46.7052 21.3144 46.3867 20.8906C46.0326 20.4194 45.5848 19.8394 45.1318 19.2627C44.6788 18.6858 44.2212 18.1129 43.8477 17.6572C43.5311 17.2711 43.2831 16.9816 43.1494 16.8389H6.87891Z" fill="#553433" stroke="#553433" stroke-width="0.5"/>
<path d="M47.1963 34.5825V35.106C47.1961 38.5008 44.8084 41.3246 41.7959 41.3247H41.2354C38.2228 41.3247 35.8351 38.5009 35.835 35.106V34.5825H47.1963ZM36.8271 35.6284C37.0538 38.2638 38.9731 40.2778 41.2354 40.2778H41.7959C44.0581 40.2778 45.9775 38.2638 46.2041 35.6284H36.8271Z" fill="#553433" stroke="#553433" stroke-width="0.5"/>
<path d="M14.707 34.5825V35.106C14.7068 38.5008 12.3192 41.3246 9.30664 41.3247H8.74609C5.73352 41.3247 3.34589 38.5009 3.3457 35.106V34.5825H14.707ZM4.33789 35.6284C4.56451 38.2638 6.48382 40.2778 8.74609 40.2778H9.30664C11.5689 40.2778 13.4882 38.2638 13.7148 35.6284H4.33789Z" fill="#553433" stroke="#553433" stroke-width="0.5"/>
<path d="M12.2588 22.8245C12.8364 22.8245 13.3402 23.1402 13.6904 23.6106C14.0406 24.0809 14.2499 24.7188 14.25 25.4124V29.7366C14.2499 30.4301 14.0406 31.068 13.6904 31.5383C13.3402 32.0087 12.8364 32.3245 12.2588 32.3245H6.74512C6.16769 32.3245 5.66278 32.0095 5.31152 31.5393C4.96024 31.069 4.75007 30.4305 4.75 29.7366V25.4124C4.75007 24.7188 4.95977 24.081 5.31055 23.6106C5.66148 23.14 6.16579 22.8245 6.74512 22.8245H12.2588ZM6.74512 23.8704C6.47519 23.8704 6.20979 24.018 6.00293 24.2952C5.7962 24.5722 5.66016 24.9657 5.66016 25.4075V29.7307C5.66016 30.1755 5.7955 30.5689 6.00195 30.845C6.20846 31.1211 6.47454 31.2678 6.74512 31.2678H12.2588C12.5286 31.2678 12.7932 31.1201 12.999 30.843C13.2048 30.566 13.3398 30.1729 13.3398 29.7307V25.4075C13.3398 24.9628 13.2041 24.5694 12.998 24.2932C12.7918 24.0168 12.5269 23.8704 12.2588 23.8704H6.74512Z" fill="#553433" stroke="#553433" stroke-width="0.5"/>
<path d="M43.2549 22.8245C43.8329 22.8245 44.3375 23.1421 44.6885 23.6135C45.0395 24.0851 45.25 24.7244 45.25 25.4182V29.7307C45.25 30.4246 45.0395 31.0638 44.6885 31.5354C44.3375 32.0068 43.8329 32.3245 43.2549 32.3245H37.7451C37.1671 32.3245 36.6625 32.0068 36.3115 31.5354C35.9605 31.0638 35.75 30.4246 35.75 29.7307V25.4182C35.75 24.7244 35.9605 24.0851 36.3115 23.6135C36.6625 23.1421 37.1671 22.8245 37.7451 22.8245H43.2549ZM37.7451 23.8704C37.4752 23.8704 37.2098 24.0183 37.0029 24.2961C36.7963 24.5737 36.6602 24.9678 36.6602 25.4124V29.7249C36.6602 30.1697 36.7962 30.5644 37.0029 30.842C37.2098 31.1199 37.4752 31.2678 37.7451 31.2678H43.2549C43.5248 31.2678 43.7902 31.1199 43.9971 30.842C44.2038 30.5644 44.3398 30.1697 44.3398 29.7249V25.4124C44.3398 24.9678 44.2037 24.5737 43.9971 24.2961C43.7902 24.0183 43.5248 23.8704 43.2549 23.8704H37.7451Z" fill="#553433" stroke="#553433" stroke-width="0.5"/>
<path d="M33.9639 25.1902C34.2672 25.1902 34.4502 25.4585 34.4502 25.7136C34.45 25.9686 34.2671 26.2361 33.9639 26.2361H16.5723C16.2692 26.2359 16.0871 25.9685 16.0869 25.7136C16.0869 25.4586 16.2691 25.1903 16.5723 25.1902H33.9639Z" fill="#553433" stroke="#553433" stroke-width="0.5"/>
<path d="M33.9639 27.4993C34.2672 27.4993 34.4502 27.7676 34.4502 28.0227C34.45 28.2777 34.2671 28.5452 33.9639 28.5452H16.5723C16.2692 28.545 16.0871 28.2776 16.0869 28.0227C16.0869 27.7677 16.2691 27.4994 16.5723 27.4993H33.9639Z" fill="#553433" stroke="#553433" stroke-width="0.5"/>
<path d="M33.9639 29.804C34.2672 29.804 34.4502 30.0723 34.4502 30.3274C34.45 30.5824 34.2671 30.8499 33.9639 30.8499H16.5723C16.2692 30.8497 16.0871 30.5823 16.0869 30.3274C16.0869 30.0724 16.2691 29.8041 16.5723 29.804H33.9639Z" fill="#553433" stroke="#553433" stroke-width="0.5"/>
<path d="M46.2666 12.292C47.9457 12.292 49.2499 13.8595 49.25 15.709C49.25 16.1115 48.9638 16.5 48.5332 16.5H44.3496C43.9253 16.5 43.6328 16.1133 43.6328 15.709V13.083C43.6328 12.6805 43.919 12.292 44.3496 12.292H46.2666ZM44.5996 15.458L48.2627 15.4541C48.1546 14.2396 47.2679 13.3381 46.2627 13.3379H44.5996V15.458Z" fill="#553433" stroke="#553433" stroke-width="0.5"/>
<path d="M5.65039 12.292C6.07474 12.292 6.36719 12.6787 6.36719 13.083V15.709C6.36719 16.1115 6.08096 16.5 5.65039 16.5H1.4668C1.03623 16.5 0.75 16.1115 0.75 15.709C0.750138 13.8596 2.05352 12.2923 3.73242 12.292H5.65039ZM3.72852 13.3379C2.72387 13.3379 1.83897 14.2386 1.72754 15.4541H5.39551V13.333L3.72852 13.3379Z" fill="#553433" stroke="#553433" stroke-width="0.5"/>
</svg>
