<svg width="36" height="47" viewBox="0 0 36 47" fill="none" xmlns="http://www.w3.org/2000/svg">
<path d="M18.6494 6.99585C24.3406 7.32751 28.9262 11.9952 28.9756 17.656L28.9668 18.199C28.8625 20.7209 27.8781 23.0875 26.1562 24.9597L25.7764 25.3533C23.699 27.4001 20.9393 28.5232 18 28.5232H17.9004C12.1405 28.4736 7.37746 23.9797 7.04102 18.3855L7.02246 17.8406C6.99812 14.936 8.136 12.203 10.2227 10.1472L10.625 9.77026C12.674 7.94224 15.3084 6.95601 18.0947 6.97729L18.6494 6.99585ZM17.998 8.39722C15.598 8.39728 13.3402 9.25631 11.5791 10.8298L11.2334 11.1541C9.42072 12.9399 8.43599 15.3097 8.45703 17.8289L8.47266 18.3005C8.76469 23.1487 12.8992 27.059 17.9131 27.1023C17.928 27.1023 17.9429 27.1022 17.957 27.1023C17.9719 27.1024 17.9861 27.1033 18 27.1033C20.56 27.1032 22.9582 26.1251 24.7646 24.3455L25.0947 24.0037C26.5904 22.3777 27.4441 20.3259 27.5342 18.1384L27.542 17.6677C27.499 12.7629 23.5188 8.70145 18.5654 8.41284L18.083 8.39722H17.998Z" fill="#553433" stroke="#553433" stroke-width="0.5"/>
<path d="M17.6035 2.24927C13.6665 2.34297 9.97561 3.83747 7.11816 6.49731L6.83594 6.76685C3.83541 9.69857 2.18366 13.5989 2.18359 17.7502L2.18457 17.884L2.19141 18.2209C2.29932 21.702 3.6253 25.0787 5.94727 27.759L6.83398 28.7932C11.1327 33.858 14.8822 39.0401 18 44.22C21.5904 38.2537 25.591 32.7872 29.9014 27.9631L30.1348 27.6956C32.5114 24.9106 33.8161 21.3942 33.8164 17.7532L33.8154 17.6116L33.8066 17.219C33.5268 9.13405 26.7981 2.52853 18.5391 2.25317L18.1387 2.24536C18.0914 2.24506 18.0443 2.24438 17.998 2.24438L17.6035 2.24927ZM35.2451 18.136C35.1565 21.9772 33.7414 25.6698 31.2305 28.6125L30.9756 28.9045C26.8498 33.5222 23.0071 38.741 19.542 44.4329L18.8545 45.5774L18.6182 45.9739C18.4888 46.1921 18.253 46.3245 18 46.3245C17.7473 46.3244 17.5114 46.1925 17.3818 45.9749V45.9739L17.0879 45.4788C13.9518 40.1937 10.1394 34.8966 5.74512 29.718L4.8584 28.6838C2.32457 25.7588 0.875545 22.0706 0.757812 18.261L0.750977 17.8918L0.75 17.7522V17.7512L0.754883 17.3264C0.863844 12.9506 2.65654 8.85495 5.82812 5.7561L6.13672 5.46216C9.35674 2.46493 13.5487 0.824463 17.998 0.824463C18.048 0.824463 18.099 0.824811 18.1514 0.825439L18.1504 0.826416C22.6791 0.864409 26.9516 2.62828 30.1797 5.79419L30.4785 6.09399C33.4218 9.12244 35.1011 13.0327 35.2402 17.1868L35.249 17.6028V17.6038L35.25 17.7502V17.7522L35.2451 18.136Z" fill="#553433" stroke="#553433" stroke-width="0.5"/>
</svg>
