<svg width="50" height="42" viewBox="0 0 50 42" fill="none" xmlns="http://www.w3.org/2000/svg">
<path d="M45.7764 5.47559C47.7147 5.47559 49.2499 7.21071 49.25 9.29004V37.5098C49.25 39.5891 47.7151 41.3252 45.7764 41.3252H4.22363C2.28528 41.3252 0.750016 39.5895 0.75 37.5098V9.29004C0.750097 7.21073 2.28501 5.47559 4.22363 5.47559H45.7764ZM4.22363 7.04395C3.14022 7.04395 2.21592 8.02702 2.21582 9.29004V37.5098C2.21584 38.7725 3.14019 39.7568 4.22363 39.7568H45.7764C46.8598 39.7568 47.7842 38.7725 47.7842 37.5098V9.29004C47.7841 8.02735 46.8598 7.04395 45.7764 7.04395H4.22363Z" fill="#553333" stroke="#553433" stroke-width="0.5"/>
<path d="M34.6182 11.8997L34.7949 11.9045C36.6018 12.006 38.0059 13.6561 38.0059 15.6194V32.136C38.0057 34.1629 36.5088 35.8547 34.6182 35.8547H7.57422C5.68339 35.8545 4.18771 34.1624 4.1875 32.136V15.6194C4.1875 13.5924 5.68361 11.8999 7.57422 11.8997H34.6182ZM7.57422 13.468C6.53821 13.4682 5.65332 14.4093 5.65332 15.6194V32.136C5.65352 33.3461 6.53861 34.2871 7.57422 34.2874H34.6182C35.6542 34.2874 36.5398 33.346 36.54 32.136V15.6194C36.54 14.4089 35.6541 13.468 34.6182 13.468H7.57422Z" fill="#553333" stroke="#553433" stroke-width="0.5"/>
<path d="M42.9365 10.9331C44.9953 10.9333 46.6278 12.7771 46.6279 14.9897C46.6279 17.2025 44.9954 19.0471 42.9365 19.0474C40.8774 19.0474 39.2441 17.2026 39.2441 14.9897C39.2443 12.777 40.8775 10.9331 42.9365 10.9331ZM42.9365 12.5015C41.7325 12.5015 40.7101 13.5936 40.71 14.9897C40.71 16.386 41.7324 17.479 42.9365 17.479C44.1405 17.4788 45.1621 16.3859 45.1621 14.9897C45.162 13.5937 44.1404 12.5017 42.9365 12.5015Z" fill="#553333" stroke="#553433" stroke-width="0.5"/>
<path d="M7.625 1.27759C7.76651 0.954665 8.10969 0.748111 8.47461 0.849854L25.1855 5.50024L25.2598 5.52466C25.5692 5.64811 25.7457 5.9697 25.7324 6.29517L25.7129 6.44458C25.6446 6.74423 25.4158 6.97784 25.1279 7.03149L25.001 7.04321C24.9393 7.0432 24.8774 7.03468 24.8164 7.01782H24.8154L8.10449 2.36743C7.69917 2.25433 7.48732 1.81952 7.57715 1.4231L7.625 1.27759Z" fill="#553333" stroke="#553433" stroke-width="0.5"/>
<path d="M37.1172 1.13257C37.4991 1.04315 37.8629 1.2925 37.9717 1.66577L38.001 1.81421C38.0332 2.13818 37.8746 2.46894 37.5752 2.61304L37.5039 2.64331L25.2314 7.00269H25.2305C25.1555 7.02906 25.0778 7.04268 25 7.04272C24.7144 7.04272 24.4645 6.86773 24.3438 6.60815L24.2998 6.49194C24.1866 6.10161 24.3729 5.6551 24.7676 5.5144H24.7686L37.041 1.15503L37.1172 1.13257Z" fill="#553333" stroke="#553433" stroke-width="0.5"/>
</svg>
